<svg width="574" height="487" viewBox="0 0 574 487" fill="none" xmlns="http://www.w3.org/2000/svg">
<path d="M531.779 367.28L532.315 366.748L528.571 368.082L527.769 367.55L525.364 369.154L525.633 364.609L524.831 363.274L521.89 360.603L521.088 361.671L521.624 363.274L520.822 364.342L520.29 375.566L524.562 379.039L532.045 374.498L531.513 370.754L533.649 369.686L531.779 367.28Z" fill="#F2F2F2"/>
<path d="M572.662 324.527L571.864 318.914L568.656 317.846L568.12 321.32L567.052 322.923L565.715 321.855L565.984 318.648L565.448 317.31L565.984 315.706L564.913 314.904L563.579 316.242V323.189L564.38 324.257L563.845 323.991L561.173 322.388L561.709 321.053L560.907 319.982H558.501L558.235 319.716L560.371 317.044V316.242L561.173 315.44L560.641 310.898L559.569 310.628V311.966L558.235 313.57L558.501 315.44L556.095 316.508L556.361 314.638L555.293 313.57L553.157 313.836L552.355 313.034L553.157 308.759L552.355 307.957L550.216 307.691L544.606 310.362V311.7L542.2 315.174L540.33 313.034L539.794 314.372L537.924 315.706L533.649 314.638L534.717 312.768L535.519 310.898L534.986 309.56L533.649 310.628L531.513 311.43L530.977 311.164L529.373 311.43L530.175 314.102L529.107 315.706L529.909 318.914L527.503 315.44L526.967 307.155L524.561 304.217L525.633 303.681L526.435 304.483L525.899 299.941L525.363 298.603L523.76 300.477L523.227 299.139L525.363 296.733L525.097 294.328H522.961L522.692 295.399H521.624L519.487 302.347L519.218 309.56L519.754 313.304L522.425 323.456L521.89 327.199L524.029 329.601L525.097 330.137L523.493 330.939V335.481L524.029 337.354H521.89L520.289 339.49L521.89 340.292L523.76 338.955L524.029 338.422L525.363 337.354L526.165 338.422L525.363 338.955V343.5L523.76 346.704L525.633 348.042L525.363 349.376H527.237L529.107 348.578L532.315 345.104L534.717 343.23L536.054 342.964L538.992 340.828L540.866 341.094L543.268 339.756L544.336 337.62L547.278 334.679L548.08 333.345L548.882 332.543L549.95 333.345L550.216 335.481L553.157 334.147L552.621 332.007L554.761 329.871L556.631 330.939L555.293 332.809L554.761 337.085L553.157 340.558L554.491 341.896L558.501 338.422L558.767 337.354L558.235 332.543L560.105 330.403L558.767 324.793L559.569 324.257H560.907L563.312 326.929L565.182 330.403L564.913 332.007L566.517 333.611L567.588 333.075L568.12 328.533L569.188 328.001V330.137L572.13 332.809L572.662 330.939L574 329.601V328.267L572.662 324.527Z" fill="#F2F2F2"/>
<path d="M501.849 382.513L507.728 382.247L508.53 383.851H509.332L509.598 382.247L513.874 381.712L514.676 380.377L513.072 377.706V376.634L514.41 374.764L514.14 373.16L511.202 375.3L509.864 376.102L509.332 374.764L507.995 375.3L507.462 376.904L505.323 377.436L505.057 378.238L501.849 378.504L501.047 379.575L499.979 378.774L498.911 378.504L495.969 375.566L495.437 379.04L494.901 380.108L499.713 382.513H501.849Z" fill="#F2F2F2"/>
<path d="M510.937 357.927L508.261 361.671L508.797 365.145L509.865 365.411L511.203 364.609L509.865 363.005L509.599 361.405L511.203 359.265L510.937 357.927Z" fill="#F2F2F2"/>
<path d="M500.781 346.172L501.047 344.302L499.444 343.23L495.168 342.964L490.892 342.432L488.756 343.5L486.084 342.964L477.263 346.172L482.611 346.973L485.282 348.843L491.964 348.577L495.438 346.973L500.781 346.172Z" fill="#F2F2F2"/>
<path d="M524.831 381.18L522.426 379.576L520.556 381.18L519.477 380.101H518.398L515.194 384.376L511.986 384.11L510.383 384.912L510.116 386.25L507.711 385.714L506.107 385.98L504.237 385.448L504.136 385.714L503.669 386.351L503.546 386.322L503.701 386.25L503.971 384.376H498.091L496.487 384.912L493.014 381.439L491.676 381.705L490.342 378.767L488.468 378.501L487.936 379.302L486.857 379.033L487.936 376.897V375.559L487.4 371.819L486.598 369.949L483.66 371.549L482.323 374.225L480.719 374.491L479.385 372.621L474.041 372.887H474.009L473.75 373.247L473.613 373.142L473.505 373.412L473.099 372.391L474.041 372.074L477.245 369.403L478.324 369.938H481.262L483.934 365.663L485.804 362.455L485.537 358.179L483.401 355.774L477.252 355.241L472.71 356.32L462.825 366.206L456.784 374.624L454.004 378.501L451.868 383.042L448.926 395.869L447.592 398.541L444.384 401.479L442.248 405.223L440.645 405.755L436.103 410.031L431.557 418.05L430.479 423.926L428.342 426.601L426.642 427.813V427.759L429.159 424.997L429.961 420.722L430.23 417.78L432.902 413.238L435.779 409.761L439.31 405.489L444.654 399.609L446.258 396.671L445.992 393.198L447.596 391.594L449.732 378.501L452.673 370.481L455.345 364.872L459.085 363.002V356.05L460.689 351.243L465.5 347.233L481.801 338.962H482.603L492.755 333.884H494.628L498.904 330.411L505.05 326.667L505.316 325.865V322.927L506.395 319.187L507.473 315.71L506.671 314.631V313.552L507.75 312.474L507.484 310.334L511.224 307.662L510.958 306.328L512.037 303.653L515.244 302.574L514.435 302.322L515.122 302.434L515.23 302.279V302.473L516.967 300.984L518.567 294.839L519.103 290.031L517.769 287.873L516.69 285.737L514.892 286.248L514.78 286.212L510.548 280.124L506.272 278.52L502.798 278.254L500.929 280.124V283.065L499.591 282.263L499.059 279.591L495.851 276.916L491.039 280.659L491.841 281.738L488.637 286.014V289.488L487.558 290.024L484.221 296.701L484.07 296.558L483.819 290.024L487.839 283.641V281.505L492.647 275.089L492.381 272.683L488.907 272.953L487.569 271.615L486.49 272.417V274.575L484.354 275.377L479.543 273.773L477.939 275.377L475.803 274.298L473.933 276.704L470.992 277.24L471.527 274.834L469.388 272.162L465.382 273.496L462.976 272.417L461.638 273.496V271.896L459.768 271.094L458.164 272.173L455.475 270.03L454.396 266.556L454.928 262.55L454.13 261.748L451.454 262.014L450.922 260.935L447.448 260.133L448.782 258.263L447.344 256.156C447.089 256.588 444.625 256.66 444.255 256.66L443.989 254.79L441.047 253.711L440.515 252.377L436.736 253.887L436.606 253.775L437.573 251.841L436.495 249.169L435.157 249.435L431.683 246.763L430.083 246.497L429.004 245.695L427.066 244.846L421.222 239.179L421.834 239.981L421.672 239.823L420.953 240.1L418.482 238.755L418.748 246.77L419.55 248.928L420.629 258.278H418.471L419.007 262.284L414.731 268.163L411.79 265.757L410.186 265.491L406.446 263.355L401.894 266.793L400.556 268.929L399.754 268.663L398.42 266.257L400.024 266.793L400.556 265.991L400.024 264.912L401.624 263.312L399.488 260.637L398.409 261.439L397.607 260.105V259.026L395.449 254.48H394.917L394.648 253.401L395.183 253.135L392.778 249.928L391.443 246.99L391.976 246.188L392.778 244.584L390.908 242.98L390.106 243.782L391.443 245.386H389.038L388.502 244.048L386.096 244.584V245.918L379.149 245.652L377.815 242.98L378.081 241.642L377.545 240.841L376.743 241.376L371.669 239.24L370.065 237.367L363.65 235.497L358.572 241.376L356.968 240.298L355.368 241.099L344.411 240.83L341.739 244.304L342.541 247.511L346.281 252.323L347.083 257.131L346.004 260.338L346.806 261.942L347.885 261.14L350.557 267.02L353.495 271.029L352.16 272.63L351.894 277.707L350.815 281.451L348.679 282.785L350.283 285.726L352.419 287.862L355.361 288.664L360.971 292.138L366.652 298.079L369.055 304.224L369.857 312.495L368.522 317.303L362.909 327.192L360.237 329.062L357.831 332L353.556 332.802L354.091 334.14L355.961 334.676L357.831 337.347L359.705 338.682L361.039 340.019L360.773 341.623L362.377 346.431L364.779 349.639L366.117 352.311L367.454 356.586L368.788 356.852L369.867 359.794L368.267 363.002L367.997 365.404L370.137 367.561V369.431L368.799 370.233L367.997 368.094L365.574 366.763L364.239 368.367L364.599 370.039L364.768 372.643L361.564 373.175L357.288 370.503L352.47 365.684L351.391 365.95L348.183 362.21L342.839 356.863H341.236L341.502 351.786L339.901 346.712L337.496 340.562V336.287L338.575 335.754L336.705 331.213L335.626 332.291H333.22L330.012 331.49L329.746 331.756L316.919 332.834L310.774 329.361L309.436 329.63L304.894 327.473H301.686L299.014 326.671L298.748 325.592L295.275 321.05L290.42 318.015V317.796L290.215 317.526L290.05 317.778L289.996 317.623L289.931 317.576L289.744 317.825L289.83 317.724L289.647 317.825H289.593L284.335 317.58L280.596 314.908L275.784 314.106L270.44 317.58L266.682 316.242L267.484 314.638L265.082 303.681L262.925 301.009L263.727 297.805L261.321 297.003L259.987 298.082L254.107 297.816V296.212L252.237 294.073L252.769 291.135L252.518 283.119H252.651V282.961L252.759 283.119L254.132 279.379L253.863 277.509L255.736 276.172L258.412 266.793L257.876 265.714L261.083 263.042L259.49 261.73L266.682 255.048L265.604 253.97L268.545 253.168L266.139 251.028L266.941 249.949L271.217 250.215L273.889 247.277L274.421 244.872L268.009 240.596L266.406 241.398L260.012 237.665L257.854 238.197L260.012 236.061L265.888 239.535L269.095 239.269L273.637 241.405L276.845 240.067L277.647 235.795L279.517 235.259L282.724 235.795L287.266 232.588L287.802 228.844L289.136 227.244L290.74 220.562L281.39 220.027L276.313 215.765L272.303 214.431V213.352L277.647 213.888L283.526 217.898L289.136 218.43L293.682 212.82L293.412 212.018L294.75 209.077L293.671 207.743L290.463 206.405L290.197 204.003L295.541 204.801L297.145 206.675L300.083 207.207L300.884 205.603L303.556 206.941L304.894 206.675L303.29 204.517V202.647L305.16 204.251L308.634 202.111L311.575 195.433H312.91L312.643 189.284L309.436 186.882L304.628 179.665V178.586L307.03 178.852L309.436 175.112L307.318 172.476L308.12 170.606L305.962 169.527H303.556L302.222 167.927L301.686 165.77L295.807 166.036L292.869 165.234L289.927 166.036L290.74 172.217L293.948 174.619L293.412 177.561L294.214 178.093L293.135 178.895L291.801 178.093L290.722 178.895L291.801 186.914L289.927 189.586L289.661 195.196H287.255L287.791 196.8L285.634 198.138L285.903 196.8L280.29 188.784V183.433L281.628 185.303H283.498L282.419 181.829L277.873 175.95L276.273 174.346L273.332 176.752L274.173 181.567L273.371 182.369L273.907 186.378L272.037 186.645L270.433 179.165L268.027 175.155L270.163 172.217L269.085 171.415L265.877 170.88L264.277 172.483L261.871 169.812L263.741 166.068L262.137 164.464L264.295 165.802L265.629 164.464L263.223 162.328L263.493 160.99L260.551 158.052L259.49 151.36L254.949 145.75L253.87 146.829L252.791 144.423L251.187 144.69L250.921 146.563L248.515 148.167L250.385 149.501L249.306 151.659L247.983 150.281L246.11 152.151L246.911 153.23V156.172L245.833 157.776L248.238 159.646L247.16 160.724L245.556 162.328L245.822 165.802L251.701 171.948L253.039 171.415L255.175 174.087L256.779 173.008L257.581 175.148L255.423 174.346L254.621 176.752L253.064 180.488L254.934 182.092L256.013 181.013L256.549 178.856H257.333L257.599 184.469L256.52 184.199L253.579 189.547L250.371 190.349L249.292 191.683L250.371 195.426V199.968H249.569L247.969 198.098L246.365 199.177L246.897 197.037L246.095 195.703L246.897 193.297L246.631 188.486L247.71 187.407H246.113L241.837 185.537L239.435 183.401V185.271L236.228 185.803L237.306 187.961L237.573 190.097L240.248 190.899H241.05L242.65 193.304L241.05 194.106L236.238 190.097L235.436 192.503L232.488 191.995L230.362 190.647H227.691L226.353 192.251L220.463 191.995L214.313 186.116L213.235 187.195L210.829 185.857L210.563 185.055L207.625 182.383L207.671 182.16L208.157 179.981L206.287 175.705L204.953 175.436L200.943 177.306H195.341L193.205 180.779L195.61 182.383L197.214 181.049L199.084 181.851L203.626 181.049L204.705 179.445L206.042 179.981L206.309 181.851L196.423 185.325L194.55 186.929L195.628 190.402L196.43 195.48L196.962 198.152H196.161L194.826 196.548L193.748 198.684L192.147 197.35L193.226 193.34L190.554 187.997L186.257 182.646L183.049 184.246L181.971 183.448L175.289 182.912L164.332 178.37L163.8 176.497L166.738 174.361L167.54 175.162L170.478 175.964L171.556 173.559L170.219 168.481L166.479 164.741H162.757L156.593 160.71V158.84L150.757 152.518L150.448 151.892L150.358 152.083L150.329 152.058V152.144L150.214 152.396L150.12 152.112L150.214 151.892L149.951 151.605L144.557 145.747L142.152 145.211L141.073 146.549L138.937 148.153L136.797 147.883L135.718 146.804L137.322 143.596L137.056 141.46L139.728 138.253L138.926 137.451L135.182 140.658L133.313 141.993L131.443 144.398L129.839 143.319L129.573 138.778L130.105 131.028L129.307 128.087L127.433 128.622L127.969 131.83L124.229 132.096L124.761 133.966L122.355 134.768L122.625 133.164L116.21 131.83L113.851 133.193H112.513V132.114L109.039 131.848L103.696 133.182L102.092 135.052L100.488 133.448L101.024 131.848L110.643 130.51L111.722 131.046L122.15 130.244L120.547 128.374L118.677 128.105L117.073 126.771L113.067 128.105L106.385 126.235L104.782 128.64L101.84 127.303L99.7039 128.64L95.1514 129.183L93.8136 128.105L91.9437 129.442L91.6776 127.572L90.8757 125.969L90.0738 125.433L89.8148 125.915V125.167L87.143 122.495L86.3411 120.337V117.13L85.5427 116.597L85.8088 113.39L84.5826 111.653L80.9326 105.403L78.6096 108.603L8.81763 188.241L10.6876 190.399L11.7664 190.129L12.8452 192.801H15.2509L17.8005 194.93L17.2539 195.696L15.5171 196.009V198.382L15.2509 198.148L16.3298 210.173L14.7259 213.647L19.0016 213.913L20.0804 214.449L21.6843 214.715L23.022 212.558L24.8919 211.759L29.7034 213.093L29.9695 217.369H28.8907L29.4229 219.775L30.5018 222.713L29.4229 224.051L30.7607 232.602L30.2249 233.404L29.3942 248.094L27.5242 249.428L28.603 250.766L26.9992 252.369L27.535 254.239L26.9992 256.109L28.3369 256.911L31.5446 262.791L32.0768 265.463L33.9504 266.8L33.4145 269.202L31.2749 270.281L29.1388 275.359L27.535 276.693V278.3L19.7856 283.644L21.1233 286.852L20.3214 288.186L21.1233 296.457L21.9216 296.723L23.5254 294.321L28.603 295.123L23.5146 299.158L24.0505 303.167L23.7843 306.641L24.5863 307.72L22.9824 309.59L21.6447 310.392L22.9824 314.135L29.1281 313.599V316.271L21.1125 318.141L20.0337 321.884L21.9036 322.417L17.6315 326.426L20.0337 332.036L21.6375 330.957L25.9204 335.478L23.5146 338.149L28.06 341.087H29.1388L32.3465 345.097V347.233L31.0088 347.769L32.3465 352.311L35.0184 352.846L35.2845 354.982L34.2057 355.252L34.7379 358.456L36.6114 359.535L36.8775 362.477L35.7987 364.347L39.0028 365.425L40.2542 364.961L40.2183 365.623L40.1355 365.828L52.0996 371.582L71.8778 379.601L87.65 385.462L104.487 391.072L115.71 394.28L134.949 399.358L135.006 399.106L146.708 401.763L161.937 404.701L176.368 407.107L187.875 408.711L202.036 410.315H202.17L202.303 410.566L202.389 410.329L221.275 411.901L243.991 412.703H250.141V408.207L250.407 408.261V408.398V408.427H250.472L253.284 409.283L254.15 415.119L255.754 416.198L259.76 416.468L261.098 417.546L262.702 417.812L265.374 416.478L269.38 417.011L272.857 420.484L272.587 421.286L275.259 419.682L279.003 422.624L281.674 422.89L284.882 420.218H285.68L286.759 421.822H291.837L292.916 422.624L295.138 422.451L296.105 422.559L296.073 422.379H296.389L297.191 420.776L297.457 418.906L299.327 417.032L300.406 418.37L301.485 417.568L302.819 413.026L303.898 413.292L302.819 416.766L305.491 412.756L304.693 411.156L305.225 410.354L309.501 412.224L316.984 411.688L320.192 413.292L320.458 414.896L325.266 420.24H329.275L332.749 419.438V422.646L336.492 426.655L335.414 429.859L338.355 430.938L338.085 433.61L337.553 435.214L341.027 434.944L345.835 437.35L348.241 436.548H354.386L362.657 436.012L363.736 437.091H367.48L369.616 435.221L375.229 441.097L377.631 442.435L377.901 443.513L381.907 448.055L380.573 452.065L377.901 452.331L374.959 450.461H372.557L370.953 448.055L368.012 445.383L365.074 446.185L369.08 450.731L369.616 454.204L367.21 457.142L368.814 469.434L364.495 473.371L364.229 477.647L364.495 481.657L359.687 484.059L361.021 487H365.833L366.099 485.13L369.839 482.189L370.917 481.923L372.787 478.183L374.657 475.777L383.475 475.241L385.345 474.162L383.209 473.627V472.548L385.614 471.746L392.562 468.808H394.702L394.777 468.578L394.971 469.074L395.183 467.362L395.237 467.204L395.205 467.172L395.237 466.938L394.435 466.402L392.832 463.461L393.047 464.025L390.962 465.064L387.222 465.866L385.618 464.788L388.29 460.512L390.962 457.304L400.311 452.496L402.717 451.961L402.983 452.496L406.723 451.694L408.597 450.357L406.191 449.278L406.723 448.476H408.061L409.931 446.606L411.049 445.703L412.218 445.585L412.577 445.423L414.735 444.47L416.339 441.532L416.605 439.928L417.939 438.324L420.881 433.783L423.081 432.88L425.124 432.463H425.156L425.084 432.193L425.156 432.434L425.44 431.995L449.207 423.365L448.937 419.621H450.8L451.879 418.021L452.957 419.1L453.223 416.694L454.827 416.428L453.223 415.09L455.097 411.616L454.561 410.538L455.097 409.736L454.827 407.866L453.223 405.46L454.025 403.054L453.223 399.847L454.867 391.234L455.906 388.623H456.967L457.233 390.227L457.801 389.26L457.97 389.576L459.905 387.822L459.268 388.541L461.994 386.642L458.003 390.267L459.373 390.497L463.113 387.822L465.249 387.555L468.456 389.695L469.258 390.774L473.8 400.659L475.404 403.601L478.612 403.867L479.413 406.273L481.017 407.877L483.423 408.143L484.757 406.809H486.095L490.101 404.651L490.637 402.515L492.507 402.245L494.11 399.839L496.25 396.366L497.329 395.287L498.408 393.953L499.21 390.745L500.68 389.904L501.126 389.875L501.08 389.943L501.324 389.857L501.716 389.832L501.882 389.943L499.745 396.625L500.544 396.355L504.287 393.683L508.027 391.547L509.897 391.813V392.349L508.293 393.151L506.157 395.557L505.355 397.157H504.553L504.021 395.287H503.485L499.745 400.364L499.21 402.234L494.132 410.786L496.002 411.322L495.2 414.529L498.944 418.269L500.278 417.467L502.435 418.546L502.701 420.15L505.639 418.28V416.676L507.243 415.072L510.451 405.723L509.915 404.921L508.836 403.32L510.44 401.447L512.31 402.249L514.468 400.379L513.932 398.775L516.338 396.905L518.743 394.233L524.353 385.962L526.759 383.557L528.895 381.956V381.421L525.155 381.956L524.831 381.18Z" fill="#F2F2F2"/>
<path d="M414.465 228.057L412.865 225.385L411.261 224.853L409.121 226.989L412.865 229.128L414.465 228.057Z" fill="#F2F2F2"/>
<path d="M400.571 246.763L399.503 248.633L401.373 249.971L403.242 247.565V244.357L401.373 244.091L400.571 246.763Z" fill="#F2F2F2"/>
<path d="M380.796 228.592V227.255L375.452 225.92L378.926 229.128L380.796 228.592Z" fill="#F2F2F2"/>
<path d="M363.693 361.671L362.09 363.541L362.359 364.879L365.833 362.203L363.693 361.671Z" fill="#F2F2F2"/>
<path d="M363.963 472.836L363.693 478.449L364.229 474.706L363.963 472.836Z" fill="#F2F2F2"/>
<path d="M363.693 441.571L363.427 438.363L362.089 438.899L361.021 437.828L359.687 438.63L356.746 438.899L355.678 439.967H351.136L351.402 441.301H355.944L362.359 442.905L363.693 441.571Z" fill="#F2F2F2"/>
<path d="M358.083 329.601L357.281 328.267L353.538 330.939L354.875 331.741L358.083 329.601Z" fill="#F2F2F2"/>
<path d="M354.074 309.561L353.272 310.096V311.43L352.204 313.034L351.668 311.7L351.136 314.904L349.798 318.378L351.938 316.508L353.006 317.846L356.213 314.372L354.609 311.966L354.074 309.561Z" fill="#F2F2F2"/>
<path d="M343.116 353.652L342.048 355.525L343.386 356.593L348.73 356.859L352.736 357.927L354.074 357.395L350.334 352.317H346.058L343.116 353.652Z" fill="#F2F2F2"/>
<path d="M349.797 314.102L350.333 312.502L348.194 314.372L349.797 314.102Z" fill="#F2F2F2"/>
<path d="M346.59 229.93V228.592L341.516 228.326L344.989 230.462L346.59 229.93Z" fill="#F2F2F2"/>
<path d="M343.116 177.554L345.256 176.482L344.454 174.879H341.516L339.912 173.278L338.84 176.216L339.912 177.82L343.116 177.554Z" fill="#F2F2F2"/>
<path d="M336.439 232.332L336.971 233.67L338.039 234.205L339.912 235.806L341.782 233.936L342.048 231.8L337.773 230.728L336.439 232.332Z" fill="#F2F2F2"/>
<path d="M309.447 128.381V136.131H308.645L308.112 131.589L305.437 132.657L305.707 130.787L304.103 131.855L303.301 137.468H301.963L302.765 132.125L302.233 128.651L300.895 124.641L299.561 123.839L298.223 123.573L297.957 121.434L295.818 118.229L289.406 119.83L287.802 122.505L286.198 124.641L285.396 128.651L284.594 131.053L284.86 135.864L287.266 136.932L284.86 141.478L287.266 144.416L290.208 144.952V150.295L288.068 149.76L289.136 148.425L283.26 141.744L281.121 131.053L281.656 126.511L284.86 121.167L282.724 119.564L277.913 120.099L272.037 127.313L271.235 131.323L269.897 138.802L271.235 150.295L273.105 151.097L278.449 151.363L280.854 153.503L278.183 154.305L275.241 152.431L273.371 153.769L273.641 157.243L274.439 156.977L278.183 160.451V161.785L282.724 162.054L283.26 159.379L289.136 165.794L292.614 162.054L293.948 163.389L300.093 162.321L303.035 164.19L305.437 162.321L307.041 163.924L308.645 162.587L306.775 160.181L311.317 159.649L312.654 161.253L316.394 159.649L313.722 155.373H311.852V153.769L318.534 155.905L320.94 159.915L324.144 158.581L324.946 160.451L323.878 161.519L326.549 161.785L331.361 164.726L330.559 167.128L328.419 168.2L328.685 171.674L332.429 169.002L332.961 166.33L338.308 169.002H340.714V171.138L346.058 173.81L351.937 181.825L351.136 182.627L350.866 190.111L346.59 196.256L347.928 197.86L352.47 200L352.736 202.938L350.6 202.672L350.064 205.344H347.662L346.058 207.749L341.782 208.551L341.246 207.749L336.705 208.015L335.903 209.353L336.169 210.687L337.507 212.291L334.033 214.431L335.101 217.635L336.438 219.505L339.643 221.644L342.048 222.177L343.116 220.576L347.126 217.635L346.058 215.765L347.392 214.697L351.937 216.031L352.204 214.963L354.34 211.489L355.411 215.499L356.213 213.629L366.365 219.505L368.77 218.973L370.64 219.239L370.91 223.514L373.848 225.384L374.916 224.582L381.598 225.384L382.666 224.316H384.269L385.337 226.186L389.883 227.79L395.227 226.452H402.44L404.314 226.988L405.648 224.05L403.242 222.177L399.236 219.774L392.019 217.369L389.347 216.833L382.935 212.291L385.071 210.155L389.347 213.629L391.753 213.093L396.564 215.499L401.372 214.161L404.314 214.963L405.914 216.031L406.184 214.697L405.382 213.093L405.116 210.953L403.242 209.353L401.106 206.412L404.314 208.015V205.61L400.57 203.204V201.604L395.227 200L396.83 199.198L395.493 196.792L393.623 198.126L390.685 194.386L389.613 195.454L386.139 194.653L380.26 189.575L377.858 190.647L377.322 189.575L374.916 187.439L375.452 185.569L377.056 187.439L379.462 185.835L378.66 184.767L376.52 184.231L374.916 182.095L377.322 182.361L375.718 179.956L378.39 178.621L381.331 181.293L385.873 182.897L388.009 180.491L386.941 183.699L389.883 184.767L391.753 187.173L394.425 189.575L397.097 187.439L399.768 188.777V185.835L397.366 179.956L398.966 180.225L400.836 177.018L400.038 172.742H397.632V170.336L399.768 170.07L400.038 169.268L398.7 167.398L400.304 165.794L394.159 164.19L390.685 167.664L390.149 162.853L386.941 166.33L385.607 165.528L383.737 161.785L380.26 160.983L378.66 162.587L379.462 159.649L378.66 158.581L374.65 162.853L370.374 162.321L367.969 158.581L366.365 159.113L358.349 159.649V158.311L361.021 158.045L362.359 156.977L361.021 153.233L359.417 152.701L363.161 151.899L364.764 150.026L364.229 148.692L358.885 149.493L356.479 149.76L356.745 148.156L360.219 145.218L355.943 141.208L354.609 141.478L354.875 144.15L353.272 144.952L351.937 143.88L349.266 146.286L348.46 145.484L353.538 140.406L353.005 139.338L347.662 138.27L346.058 140.676L344.99 141.208L346.058 138.802L342.85 141.478L342.584 137.202L340.98 136.666L340.178 139.874L339.376 138.536L337.237 140.14L338.308 141.478L340.178 140.14L339.11 142.28L337.237 141.744L336.705 138.802L339.11 136.666L338.841 135.329L334.835 132.391L333.231 133.995L332.429 138.004L327.887 132.657L324.679 136.666L324.144 136.131L326.549 132.657L325.215 129.453L322.54 129.985L322.274 128.115L319.066 126.511L317.732 127.579L314.524 125.709L309.447 128.381Z" fill="#F2F2F2"/>
<path d="M328.955 175.68L329.221 184.767L331.36 186.637L334.565 185.835L337.772 186.105L339.11 182.361L338.308 179.423L336.168 176.752L336.97 174.08L332.428 173.81L328.955 175.68Z" fill="#F2F2F2"/>
<path d="M336.971 172.475L333.497 169.001L334.835 172.206L336.705 173.277L336.971 172.475Z" fill="#F2F2F2"/>
<path d="M336.438 254.246L336.168 248.633L334.564 244.357L331.091 246.497L330.825 250.236L334.564 255.58L336.438 254.246Z" fill="#F2F2F2"/>
<path d="M325.215 162.853L323.075 164.727L324.679 166.863L326.549 164.191L325.215 162.853Z" fill="#F2F2F2"/>
<path d="M326.014 232.065L326.284 230.195L323.342 227.524L322.54 229.393L319.868 229.127L318.534 230.728L317.732 230.461L319.336 228.056L316.128 222.978L312.655 221.644L307.843 218.436H305.707L303.035 215.764L301.964 216.031L301.697 218.702L300.629 218.972L296.89 211.489L294.484 212.826L294.75 218.17L295.818 219.504L295.016 232.601L291.276 238.481L292.078 240.081L298.759 237.143L300.094 237.675V240.081L301.431 243.555L304.905 241.419L307.041 236.877L307.843 236.341L309.983 234.737L308.911 232.601L310.785 230.195L312.921 231.529L315.06 232.065L316.664 233.935L319.066 234.471L322.274 236.075L326.014 232.065Z" fill="#F2F2F2"/>
<path d="M320.67 241.419L317.196 242.221L315.06 244.091L313.186 242.753L312.654 245.695L310.248 249.435L312.388 251.84L313.456 252.106H315.592L318.264 251.038L317.732 249.97L321.205 244.893L320.67 241.419Z" fill="#F2F2F2"/>
<path d="M317.732 162.055L316.664 164.727L320.404 161.519L317.732 162.055Z" fill="#F2F2F2"/>
<path d="M319.335 170.07V165.794L317.998 165.528L317.196 172.206L319.335 170.07Z" fill="#F2F2F2"/>
<path d="M303.035 117.694L298.759 117.158L298.49 118.496L299.827 122.506L301.528 123.829L302.233 124.376L303.567 128.917L306.239 128.382L306.775 125.976L309.181 124.642L314.424 124.268L316.664 124.106L315.862 122.236L309.181 116.356L305.707 116.626L303.035 117.694Z" fill="#F2F2F2"/>
<path d="M310.515 162.587L309.181 164.19L311.586 165.528L314.524 163.122V161.785L311.853 162.587H310.515Z" fill="#F2F2F2"/>
<path d="M307.843 213.094L308.112 212.026L305.973 210.422L301.963 208.818L304.635 213.094H307.843Z" fill="#F2F2F2"/>
<path d="M260.278 27.3721L261.08 27.6382L259.742 29.7778L262.148 31.9139L260.81 33.2516L261.346 34.8554L267.226 33.2516L270.164 30.5762L268.294 34.3196L263.216 35.3877V36.4557L267.492 38.5953L268.564 35.9235L269.096 39.3972L274.173 38.5953L274.439 37.2576L275.777 36.9915L276.313 38.5953L281.391 34.8554L282.459 32.7158L285.13 32.9819L281.923 38.0595L276.845 41.2672L277.115 42.6013L280.585 45.0071L280.053 46.3448L282.189 48.7505L280.585 48.4808L278.985 46.0751H277.913L274.975 42.871H269.096V44.4748L269.898 46.0751L270.433 48.4808L273.641 50.6205L274.745 52.7098L276.043 55.1623L276.313 58.1038L280.585 58.6361L281.391 57.8341L282.725 58.6361L280.053 61.3079L278.449 59.7041L273.371 59.9738L271.235 61.8437L270.966 63.7137L269.898 65.3175L269.908 65.5045L270.164 69.8593H271.501L272.839 68.5252L273.907 69.5932H274.709L276.043 68.7913L275.511 71.197L276.313 73.6028L279.517 75.7388L280.855 74.4011L281.391 72.5312L282.189 74.4011L281.923 75.7388L279.787 76.8068L276.313 77.0766L275.241 75.4727L273.371 72.5312H269.632V74.4011L270.164 75.4727L270.7 78.4107L272.303 78.9465L272.569 79.7484L270.966 81.6184L269.898 81.3522L266.96 85.3582L267.492 89.1017L267.226 90.1697L270.433 90.4358L271.501 90.9716L274.709 88.5659L276.313 89.6339L281.121 91.2378L280.585 89.3678L281.121 88.0301L284.861 87.2282L285.397 88.832L287.267 87.4979L287 85.894H290.474L290.74 89.6339L291.542 90.1697L297.688 84.0241L298.49 80.8164L296.89 77.8785L295.818 78.6804V80.0145L295.286 80.5503L293.412 78.9465L294.214 77.6088L293.412 76.2746L291.812 77.3427L286.465 77.6088L285.932 73.067L287.802 75.2066L291.812 75.7388L295.552 72.5312L293.682 67.9894L295.552 66.9213L296.354 67.4536L299.561 64.5156L297.156 63.1814L299.561 62.3759L299.026 60.2399L296.89 58.6361H299.292L298.759 55.4284L296.62 54.3604L295.818 53.2923L293.146 53.8282L294.214 51.6885L298.759 51.1563L297.156 49.2828L290.74 51.1563L293.948 48.7505L295.552 48.4808L299.026 45.0071L298.224 42.871L300.094 43.939L302.233 40.7314L302.499 37.2576L299.026 38.8614L301.697 35.3877L301.431 33.7838L302.765 33.2516L304.905 24.9663L305.437 21.4926L306.775 17.483L305.437 16.1488L303.567 17.2169L300.36 23.3625L298.759 23.6286L301.431 18.0188L298.759 19.3529L297.958 18.8207L302.233 16.9508L305.707 11.0712L305.171 4.9256L304.103 3.32177L301.697 3.85398L299.292 0.916016L296.89 1.18212L295.016 5.45781H293.412L294.75 3.32177L294.214 1.45183L292.078 2.51985L288.068 2.25374L287.536 3.58787H285.663L284.329 5.72752L279.251 5.19171L278.985 7.33135L280.319 8.66548V9.20129L275.511 8.66548L273.371 11.3373L274.439 13.2073L272.569 12.4054L272.303 16.4149L273.105 17.7527L271.235 18.5546L267.492 15.3469V18.0188L265.622 19.0868L269.096 21.7587L266.424 22.0284L265.356 21.2265H263.752L262.414 24.1644L261.612 23.3625L257.071 26.8363L258.674 28.7062L260.278 27.3721Z" fill="#F2F2F2"/>
<path d="M298.759 209.886L300.093 214.431L301.963 213.895L298.759 209.886Z" fill="#F2F2F2"/>
<path d="M270.966 109.944L272.569 110.746L271.767 112.882H280.053L282.458 112.08L284.062 110.746H287.266L289.136 108.341L293.412 110.48L295.286 108.341H296.889L297.688 104.601L299.025 104.065V102.195H297.155V100.857L298.224 98.1853L296.62 97.1173H294.484L294.75 95.2473L292.078 94.9776L290.74 93.3774L284.328 95.2473L282.458 98.1853L279.517 98.7211L278.183 100.055L278.449 102.461L275.777 99.7891L271.767 100.591V98.9872H270.164L269.897 101.393L269.096 101.127L269.362 98.7211L267.492 96.3154H264.288L263.216 95.5134L265.356 93.3774L267.492 92.5755L263.752 90.9716V89.6339L261.346 87.764L259.476 87.4979L257.872 89.6339L257.07 88.832L255.2 85.6279H253.597L248.789 83.4883L246.649 85.0921L246.383 87.2282L250.123 92.0397L250.659 91.2378L250.123 93.6435L255.467 92.8416L257.34 92.3058L257.872 95.7795L260.012 97.9192L260.544 101.393L258.94 105.403L261.08 106.737L260.81 110.48H261.882L263.752 112.616L265.622 112.35L268.563 113.418L270.966 109.944Z" fill="#F2F2F2"/>
<path d="M287.536 190.381L288.604 189.575L288.068 185.033L285.662 186.371L287.536 190.381Z" fill="#F2F2F2"/>
<path d="M285.131 165.259L285.397 164.457L283.793 163.123L281.923 164.992L285.131 165.259Z" fill="#F2F2F2"/>
<path d="M259.476 135.329L261.346 135.599L264.553 131.053V128.651L267.225 123.839L265.621 119.298L260.81 120.632L256.804 117.694L252.794 118.762L251.19 121.168L252.262 123.038L249.32 122.771L249.856 124.641L249.32 134.531L251.46 139.072L251.992 143.078L254.664 143.614L257.34 137.735L256.268 135.063L257.34 133.995L259.476 135.329Z" fill="#F2F2F2"/>
<path d="M250.389 54.6299L251.727 57.0321L257.07 55.6979L253.33 59.4378L256.268 65.0513L258.408 65.3174L257.07 67.1873L260.81 70.1289L262.684 69.8592L263.216 68.7911L265.622 67.4534L266.158 69.0572L267.226 69.3269L267.492 66.1193L268.563 65.5835L268.294 63.9796L270.433 59.1717L273.907 57.3018L273.641 53.2922L269.631 51.1561L268.294 47.1466L266.959 45.8088V42.069L264.554 41.5331L265.622 42.8709V45.5427H264.82L262.95 41.0009H261.346L260.81 38.8613L256.268 31.3779L253.064 31.1118L252.529 32.4495L254.934 33.7837L253.33 35.9233L252.262 34.8553H250.925L250.659 37.5272L252.529 39.3971L252.795 40.4651L250.123 40.7312L249.055 45.2766L250.123 45.0069L252.262 48.4807L249.055 46.0749V50.8864L250.659 52.4903L250.389 54.6299Z" fill="#F2F2F2"/>
<path d="M265.356 90.9713H266.69L265.888 87.2278L264.288 85.0918L265.356 90.9713Z" fill="#F2F2F2"/>
<path d="M262.414 75.2061L261.346 76.8063L261.612 78.9459L263.751 81.3517H265.888L265.621 78.4101L262.414 75.2061Z" fill="#F2F2F2"/>
<path d="M256.538 112.08V104.6L252.528 100.325L250.122 101.393L249.054 104.065L246.649 107.804L252.528 112.616L256.538 112.08Z" fill="#F2F2F2"/>
<path d="M255.466 78.6807L256.538 75.2069L252.528 74.6711L251.992 75.2069L249.856 74.4014L247.986 77.3429L253.866 77.8787L255.466 78.6807Z" fill="#F2F2F2"/>
<path d="M254.935 98.7207L252.795 96.5811L251.461 97.1169L253.065 99.2529L254.935 98.7207Z" fill="#F2F2F2"/>
<path d="M244.513 64.5161L243.977 67.9899L246.649 70.9278L244.779 70.6617L246.113 74.1355L248.788 73.8694L252.528 71.4637L250.924 67.7238L251.46 66.386L249.856 65.8538L249.054 64.5161L244.779 62.3765H243.711L244.513 64.5161Z" fill="#F2F2F2"/>
<path d="M250.925 173.277L248.789 171.404L247.451 173.008L249.591 174.878L250.925 173.277Z" fill="#F2F2F2"/>
<path d="M244.779 171.674L240.238 167.93L237.296 171.138L236.76 174.878L235.962 176.215L233.822 175.68L232.754 177.819L234.358 179.689L245.848 185.033L250.925 180.757L250.123 179.423L248.253 179.153L248.519 177.017L245.046 173.277L244.779 171.674Z" fill="#F2F2F2"/>
<path d="M249.591 101.393L247.987 100.325L245.311 101.925L246.383 103.798L249.591 101.393Z" fill="#F2F2F2"/>
<path d="M245.312 129.183L244.244 131.323L245.848 132.657L247.451 131.053L245.312 129.183Z" fill="#F2F2F2"/>
<path d="M244.244 134.531V133.193L243.712 131.053L240.77 131.589V129.985L243.712 127.047L244.244 124.642L245.582 124.375L243.712 120.902L237.832 123.038L237.03 122.772L236.228 119.83L232.485 120.632L232.754 123.84L230.615 124.642L230.349 127.849L233.29 129.985L232.219 134.531L230.885 133.459L227.943 128.917L225.537 132.657L227.677 136.933L228.213 138.271L232.754 143.078L234.624 147.088V148.958L238.364 151.63L239.968 150.026L240.238 147.088H241.036L241.838 147.89L246.383 144.952L246.114 143.348L245.848 139.874L246.916 137.735L244.244 134.531Z" fill="#F2F2F2"/>
<path d="M228.745 100.325L238.364 99.5227L238.098 100.591L234.624 103.798L236.494 108.34L238.9 107.272L240.77 108.074L243.711 105.934L244.513 102.997L245.045 101.127L244.513 98.4547L245.045 97.117V92.8413L243.977 90.7052L241.838 88.0298L240.504 90.7052H239.436L238.9 88.0298L235.16 90.7052L237.03 92.0394V93.9093L238.364 97.3831L236.494 95.7792L234.088 90.4355L232.485 90.9713L232.218 94.7112L234.088 98.185L231.952 96.5812L228.745 100.325Z" fill="#F2F2F2"/>
<path d="M243.977 51.1564L243.711 46.611L241.305 45.8091L240.503 48.2148L242.373 51.1564H243.977Z" fill="#F2F2F2"/>
<path d="M238.098 119.83L238.634 121.434L243.442 119.564L242.909 118.762H240.77L238.098 119.83Z" fill="#F2F2F2"/>
<path d="M229.546 63.4477L227.676 64.5157L229.014 67.1876L231.686 66.9215L236.227 68.5253L236.76 69.3272L237.029 72.5313L239.967 74.9371L241.837 73.869L240.769 67.4537L241.305 63.1816L238.097 61.3081L236.76 57.8343L234.624 59.4381L234.088 56.7663L231.686 53.5586L228.212 55.1624V57.5682L231.952 63.1816L231.686 64.5157L229.546 63.4477Z" fill="#F2F2F2"/>
<path d="M234.89 89.6336L238.098 86.9617L236.76 85.3579L233.822 88.2995L234.89 89.6336Z" fill="#F2F2F2"/>
<path d="M232.484 73.0674L233.822 74.9373L236.76 75.207L236.494 74.1354L232.484 73.0674Z" fill="#F2F2F2"/>
<path d="M227.14 97.3833L229.546 97.653L231.686 95.2472L229.28 94.9775L227.14 97.3833Z" fill="#F2F2F2"/>
<path d="M230.614 179.424L229.812 177.554L227.942 178.086L229.28 180.758L230.614 179.424Z" fill="#F2F2F2"/>
<path d="M230.081 93.1081V91.7739L225.27 92.04L226.072 94.1797L230.081 93.1081Z" fill="#F2F2F2"/>
<path d="M228.744 90.7059L229.014 89.3681L226.608 86.6963L224.469 87.7643L225.806 89.3681V90.7059H228.744Z" fill="#F2F2F2"/>
<path d="M224.203 79.212L226.339 80.5498L227.141 79.7478L225.271 73.3325L223.667 72.8003L223.936 76.2741L224.203 79.212Z" fill="#F2F2F2"/>
<path d="M223.401 105.669L226.072 105.403L225.004 103.264L224.738 100.592H222.865L222.599 102.462L221.531 104.332L223.401 105.669Z" fill="#F2F2F2"/>
<path d="M221.261 180.225L222.865 182.095L224.202 180.758L222.598 178.888L221.261 180.225Z" fill="#F2F2F2"/>
<path d="M220.729 123.304L217.787 119.83H214.583L211.911 121.97L216.453 129.985L220.729 123.304Z" fill="#F2F2F2"/>
<path d="M215.116 64.5153L216.72 65.3172L218.057 64.2492L218.59 62.3756L216.687 59.2866L216.454 58.9019L215.116 58.6357L211.912 60.2396L208.168 60.5057L207.366 61.5773L210.308 62.9114L211.912 63.9795L212.71 63.1811L213.246 63.4472V63.9795L215.116 64.2492V64.5153Z" fill="#F2F2F2"/>
<path d="M207.1 74.1347H212.444V69.0571L214.314 68.2552L215.116 66.655L208.704 66.3853L206.032 67.723L205.766 69.5929L204.694 71.4629L207.1 74.1347Z" fill="#F2F2F2"/>
<path d="M209.24 181.559L211.109 182.897L211.911 182.095L210.574 179.956L209.24 181.559Z" fill="#F2F2F2"/>
<path d="M205.866 104.363L209.772 103.263L211.376 105.402L213.515 105.133L214.849 105.935L218.057 104.867L220.193 102.461L220.463 101.127L222.063 97.6529V94.7113L219.927 92.3056H218.057L216.719 93.3772L214.583 91.2376L213.781 90.7054L215.385 89.6337L214.583 86.9619L215.115 84.29L214.849 82.154L213.515 81.6182L211.642 84.5561L208.438 86.4261L210.574 89.6337L211.109 91.2376L209.506 90.9715L208.438 92.3056L212.177 97.1171L210.84 97.3832L207.636 95.7794L207.085 95.5888L204.694 95.2472V92.3056L203.09 91.2376L203.892 90.1695L202.558 88.8318V87.228L199.616 85.358V84.0239L198.282 82.154L194.273 81.8843L193.205 83.222H192.935L189.997 86.6958L192.137 88.5657L189.731 87.7638L187.325 89.6337L190.533 91.7734L185.991 91.2376L184.653 92.3056L188.127 96.0491L188.929 97.3832L193.471 98.987L194.539 97.1171L195.877 97.3832L195.341 99.2531H202.824V101.127L198.815 100.055L195.075 101.659L192.935 101.925L192.403 104.331L195.877 107.272H198.013L205.651 104.956L205.866 104.363Z" fill="#F2F2F2"/>
<path d="M202.558 68.5254L205.23 67.1876L203.626 63.7139L202.022 64.7819L202.824 66.9215L202.558 68.5254Z" fill="#F2F2F2"/>
<path d="M202.289 78.9464L198.283 77.8784L199.085 80.0145H201.756L202.289 78.9464Z" fill="#F2F2F2"/>
<path d="M179.575 80.5502L179.309 82.6863L181.981 83.4882L183.585 82.6863V81.3521H185.455L190.533 75.2065L190.799 75.7387L188.663 78.9464L190.263 82.1541L192.136 80.0144L195.34 79.2125L195.61 76.2745H196.412V74.6707L196.142 72.8008L197.48 73.333L198.548 72.5311L197.21 68.2554H195.876L195.074 69.8592L194.272 70.1289L192.402 68.2554L189.997 68.5251L183.585 73.333H180.377L180.111 75.4726L178.238 74.9368L174.764 76.5407V79.7483L177.972 80.8163L179.575 80.5502Z" fill="#F2F2F2"/>
<path d="M188.663 83.2227L184.387 85.3587L180.91 86.6964L182.514 89.6344L188.663 84.0246V83.2227Z" fill="#F2F2F2"/>
<path d="M149.379 125.177L149.11 126.511L147.775 129.183L148.311 130.787H152.853L154.723 129.453L155.259 130.521L159.265 131.323L163.541 124.375L167.014 123.304L169.154 120.901L179.039 116.09L181.981 116.356L184.387 113.95L181.981 106.204L179.575 104.065L176.368 103.799L174.232 102.731L172.092 100.325L171.29 95.7794L167.014 96.0491L164.878 94.9775L160.869 94.4453V96.8511L159.265 98.1852L160.067 102.195L144.838 116.626L149.379 125.177Z" fill="#F2F2F2"/>
<path d="M93.5297 127.047L94.3316 127.849H96.4677L103.415 125.177L101.815 122.236L99.4092 123.574L98.0715 122.772L95.9354 123.574H92.4617L92.9939 124.375L93.5297 127.047Z" fill="#F2F2F2"/>
<path d="M30.1958 353.386L32.8677 357.395L33.6696 355.256L30.7316 350.98L30.1958 353.386Z" fill="#F2F2F2"/>
<path d="M27.7898 353.921L27.5237 342.698L23.1904 338.487L18.1704 333.611L16.8362 330.403L13.0928 327.199L11.2228 327.465L10.4209 329.601L12.0247 332.277H15.2324L14.9627 333.611L12.5605 333.877L10.9567 336.283L14.6966 339.49L13.8947 340.026L14.9627 342.162L17.1023 342.698L17.3684 346.704H16.3004L16.0343 347.776L16.8362 349.646H18.7062L19.5081 353.921L18.7062 354.989L20.5761 357.927L22.9819 357.395L23.248 358.729L22.18 360.333L26.7218 366.479L30.4652 368.618L32.0655 365.68L32.6013 359.531L31.6591 358.431L27.7898 353.921Z" fill="#F2F2F2"/>
<path d="M27.5244 314.638L21.3788 315.44V316.777L27.7905 315.975L27.5244 314.638Z" fill="#F2F2F2"/>
<path d="M24.0506 295.399L23.2487 297.003L26.1902 295.666L24.0506 295.399Z" fill="#F2F2F2"/>
<path d="M18.7065 303.415L18.9726 305.285L20.8425 308.758L23.5144 304.217L22.1803 299.675L18.7065 303.415Z" fill="#F2F2F2"/>
<path d="M18.1708 289.52L19.2389 297.805L20.0408 295.932L18.9728 288.984L18.1708 289.52Z" fill="#F2F2F2"/>
<path d="M15.4991 286.578L17.369 288.984L18.9729 287.916L17.6387 286.578H15.4991Z" fill="#F2F2F2"/>
<path d="M16.0347 307.155H18.1708L18.4369 304.483L16.8366 304.217L16.0347 307.155Z" fill="#F2F2F2"/>
<path d="M16.3015 297.269L17.6392 295.932L16.5676 292.192L16.0354 290.854L14.4316 292.458L16.3015 297.269Z" fill="#F2F2F2"/>
<path d="M15.7653 342.964L13.8954 344.834L16.3011 346.438L15.7653 342.964Z" fill="#F2F2F2"/>
<path d="M9.08719 280.433L6.94755 283.906L4.00958 283.104L4.27569 282.572L7.21366 282.306L8.28528 280.702L7.48336 278.829L6.14563 278.297L5.87953 276.427L4.8115 275.355L2.13964 278.829L1.33773 280.968L0 282.306L1.33773 283.64L0.801917 288.182L4.5418 288.452L6.94755 285.244L12.2913 281.235L9.08719 280.433Z" fill="#F2F2F2"/>
<path d="M6.41546 290.854L5.07774 288.984L0.266235 289.254L0.535938 290.052V293.53L1.87007 302.879L3.74001 303.149V301.811L2.93809 301.279V297.27L2.13977 294.598L3.4739 291.124L6.41546 290.854Z" fill="#F2F2F2"/>
<path d="M226.875 164.19L224.739 162.32L221.531 158.581L220.193 158.847L217.787 154.305L216.187 150.295L218.057 148.156L216.453 144.15L215.917 129.719L211.642 124.641L210.308 125.443L208.97 123.037L207.902 123.573L206.032 138.004L207.1 141.208L204.694 143.88L204.428 140.14L203.626 139.338L204.428 137.468L203.626 134.53L204.162 131.855L203.626 130.787L200.688 125.177L200.152 125.443L198.549 125.177V126.511L199.617 127.579L200.152 127.313L200.418 128.381L198.815 130.254L198.833 130.348L198.743 130.388L195.611 131.589L193.471 131.855L193.205 131.053L195.075 130.521L195.341 128.381L192.137 123.839L190.263 122.771L187.325 126.511L184.387 126.245L188.663 122.771L187.059 117.158L180.378 119.563L179.04 119.028L175.836 119.563L170.489 123.573L170.223 126.777L169.155 126.245L167.015 128.381H165.947L164.613 129.985L165.415 131.053L166.749 131.855L167.551 132.926L166.483 133.994L167.817 135.598L172.092 136.13L177.17 136.666L176.904 137.734H166.213L164.077 140.676L165.415 143.88L168.619 144.952L171.905 147.062L171.708 147.181L174.764 148.156H180.378L179.842 149.227L184.118 151.629L187.059 155.373L183.316 155.639L177.972 152.165L171.291 150.561L163.811 150.827V151.629L164.12 151.723L164.109 151.726L164.383 151.87L164.343 151.899V155.639L166.213 159.649L168.885 162.32L174.498 164.992L173.962 167.398L175.566 173.008L180.91 175.147L189.997 176.215L196.143 173.544L200.418 173.81L204.162 170.872L204.428 169.534L205.23 169.8V171.674L209.772 174.612L210.84 174.079L208.97 176.215L210.574 177.284H214.849L216.453 178.621L220.729 178.355L223.135 176.751L223.401 173.278L222.865 171.94L221.261 171.138L219.125 173.008L218.057 169.002L220.995 170.606L221.531 169.002L223.401 167.664L224.203 166.596L224.469 169.268L227.41 167.664L226.875 170.07L228.744 168.466L229.014 163.924L226.875 164.19Z" fill="#F2F2F2"/>
<path d="M15.4991 198.109V198.393L28.7253 209.217L48.1008 222.709L66.2716 233.666L89.7861 245.691L89.2539 236.342L90.8577 235.809L90.0558 234.472L84.9782 233.393L83.3744 231.253L80.4364 230.987L78.2967 229.908L78.5629 226.165L80.9686 222.961L79.0987 220.555L78.0198 211.468H75.6249L74.5461 209.598L75.6249 208.26L76.4268 206.39V201.068L78.2967 199.464L77.4948 195.99L80.4364 195.189L79.6345 191.449L81.2383 189.845L78.5629 187.975L79.6417 183.965L79.9078 182.886L77.2359 180.215L78.0378 179.679L76.959 178.345L78.0378 176.741L76.7001 174.583L78.8398 171.911L78.57 170.577L79.372 169.775L82.0438 168.438L83.1226 168.704L84.9926 162.828L82.5868 162.558L81.508 160.688H80.4292L79.8934 159.886L83.6441 154.571L85.2479 149.76L80.7061 145.218L77.2323 142.812L78.3111 142.546L80.983 138.27L81.2527 136.667L89.8005 125.177M111.506 255.354L89.8005 245.684L111.506 255.354ZM150.448 151.899L142.447 168.981L168.903 207.994L177.454 210.152L181.712 218.966L215.917 231.793L211.16 280.249L211.494 280.519L211.76 280.785L222.599 282.037L239.435 282.838L252.68 283.108M134.949 399.35L162.757 284.176L163.059 280.94L163.559 280.706L165.274 273.719L165.407 273.485V273.219L148.84 268.408L129.062 262.262L109.823 254.782L109.69 255.199L109.287 255.048L81.7633 322.122L82.0978 321.92L83.6333 323.459L84.9027 324.294L82.5652 325.613L85.2731 328.85L84.7696 329.67L87.4918 331.022L86.4562 333.179L89.4481 336.937L89.2143 341.497L91.1346 342.849L91.1993 345.672L92.5874 346.341L94.5257 349.164L94.5904 352.235L97.0609 352.922L96.8631 357.597L98.7834 361.221L100.103 363.426L99.535 365.63L101.923 369.704L104.296 372.445L103.728 377.59L102.106 383.801L104.21 387.875L104.48 391.083M202.015 410.325L205.755 326.951L207.743 309.812L208.962 302.365L208.603 302.232L211.091 280.72L204.41 280.185L186.505 277.513L165.393 273.237M289.589 317.828H289.64L289.823 317.727L289.74 317.828H289.938L289.722 318.13L262.414 354.177L250.659 366.472L250.389 408.258L250.123 408.207V412.699M425.124 432.477H425.156L424.078 428.201L423.542 425.799L419.532 425.529L412.052 430.877L410.129 431.927L408.611 432.38L405.375 431.661L403.771 428.723L400.297 429.258L396.287 426.587L387.47 426.853L382.392 423.911L377.851 419.369L375.981 414.828L363.955 370.201M455.115 389.418L458.819 377.191L474.487 372.876M418.245 238.575L433.967 251.61L431.561 254.016L433.719 256.688L432.115 258.824L432.647 260.428L436.923 262.298L439.328 262.834L440.932 265.239L440.396 267.109L442 267.911L441.198 269.781L443.072 271.651L441.734 274.057L445.208 276.729H443.874L446.01 280.203L448.682 279.401L447.88 280.738L451.354 285.014L450.275 286.093L452.681 285.557L453.213 288.229L454.817 291.706L453.213 292.505L455.619 294.91L452.947 295.989L451.077 295.191L448.919 296.791L447.319 295.457L443.608 299.157L438.264 298.625L433.722 296.752L436.926 300.225L437.196 302.901L430.781 300.495L432.385 302.631L435.592 304.789L434.513 306.925L431.842 308.795L434.244 310.398L433.978 312.804L439.321 316.814L440.4 316.278L443.342 320.554L441.184 321.891L442.522 323.495L446.797 325.095L447.333 324.017L445.996 321.881L447.333 320.007L450.271 323.215L450.005 324.294L451.339 325.897L450.537 327.235L451.616 328.569L452.414 327.235L454.288 328.569L457.762 327.771L458.028 326.433L461.768 329.371L464.173 328.292L466.579 330.45L468.449 328.292L466.579 323.484L465.777 319.741L464.44 317.605V315.699L465.777 313.027L467.647 314.106L465.242 316.508L465.511 318.112L468.985 320.518L470.064 322.388L511.213 297.269L515.108 302.462M504.532 384.653L501.324 391.065L504.532 384.653ZM199.886 125.799L192.137 160.181L164.109 151.72M205.942 104.777L207.848 95.4668L205.942 104.777ZM209.444 87.6598L209.962 85.1245L209.444 87.6598ZM214.223 67.0365L213.425 68.7913L214.223 67.0365ZM215.144 63.8899L216.629 58.8159L215.144 63.8899Z" fill="#F2F2F2"/>
<path d="M15.4991 198.109V198.393L28.7253 209.217L48.1008 222.709L66.2716 233.666L89.7861 245.691L89.2539 236.342L90.8577 235.809L90.0558 234.472L84.9782 233.393L83.3744 231.253L80.4364 230.987L78.2967 229.908L78.5629 226.165L80.9686 222.961L79.0987 220.555L78.0198 211.468H75.6249L74.5461 209.598L75.6249 208.26L76.4268 206.39V201.068L78.2967 199.464L77.4948 195.99L80.4364 195.189L79.6345 191.449L81.2383 189.845L78.5629 187.975L79.6417 183.965L79.9078 182.886L77.2359 180.215L78.0378 179.679L76.959 178.345L78.0378 176.741L76.7001 174.583L78.8398 171.911L78.5701 170.577L79.372 169.775L82.0438 168.438L83.1226 168.704L84.9926 162.828L82.5868 162.558L81.508 160.688H80.4292L79.8934 159.886L83.6441 154.571L85.2479 149.76L80.7061 145.218L77.2323 142.812L78.3111 142.546L80.983 138.27L81.2527 136.667L89.8005 125.177M111.506 255.354L89.8005 245.684M150.448 151.899L142.447 168.981L168.903 207.994L177.454 210.152L181.712 218.966L215.917 231.793L211.16 280.249L211.494 280.519L211.76 280.785L222.599 282.037L239.435 282.838L252.68 283.108M134.949 399.35L162.757 284.176L163.059 280.94L163.559 280.706L165.274 273.719L165.407 273.485V273.219L148.84 268.408L129.062 262.262L109.823 254.782L109.69 255.199L109.287 255.048L81.7633 322.122L82.0978 321.92L83.6333 323.459L84.9027 324.294L82.5652 325.613L85.2731 328.85L84.7696 329.67L87.4918 331.022L86.4562 333.179L89.4481 336.937L89.2143 341.497L91.1346 342.849L91.1993 345.672L92.5874 346.341L94.5257 349.164L94.5904 352.235L97.0609 352.922L96.8631 357.597L98.7834 361.221L100.103 363.426L99.535 365.63L101.923 369.704L104.296 372.445L103.728 377.59L102.106 383.801L104.21 387.875L104.48 391.083M202.015 410.325L205.755 326.951L207.743 309.812L208.962 302.365L208.603 302.232M208.603 302.232L208.567 302.591M208.603 302.232L211.091 280.72L204.41 280.185L186.505 277.513L165.393 273.237M289.589 317.828H289.64L289.823 317.727L289.74 317.828H289.938L289.722 318.13L262.414 354.177L250.659 366.472L250.389 408.258L250.123 408.207V412.699M425.124 432.477H425.156L424.078 428.201L423.542 425.799L419.532 425.529L412.052 430.877L410.129 431.927L408.611 432.38L405.375 431.661L403.771 428.723L400.297 429.258L396.287 426.587L387.47 426.853L382.392 423.911L377.851 419.369L375.981 414.828L363.955 370.201M455.115 389.418L458.819 377.191L474.487 372.876M418.245 238.575L433.967 251.61L431.561 254.016L433.719 256.688L432.115 258.824L432.647 260.428L436.923 262.298L439.328 262.834L440.932 265.239L440.396 267.109L442 267.911L441.198 269.781L443.072 271.651L441.734 274.057L445.208 276.729H443.874L446.01 280.203L448.682 279.401L447.88 280.738L451.354 285.014L450.275 286.093L452.681 285.557L453.213 288.229L454.817 291.706L453.213 292.505L455.619 294.91L452.947 295.989L451.077 295.191L448.919 296.791L447.319 295.457L443.608 299.157L438.264 298.625L433.722 296.752L436.926 300.225L437.196 302.901L430.781 300.495L432.385 302.631L435.592 304.789L434.513 306.925L431.842 308.795L434.244 310.398L433.978 312.804L439.321 316.814L440.4 316.278L443.342 320.554L441.184 321.891L442.522 323.495L446.797 325.096L447.333 324.017L445.996 321.881L447.333 320.007L450.271 323.215L450.005 324.294L451.339 325.897L450.537 327.235L451.616 328.569L452.414 327.235L454.288 328.569L457.762 327.771L458.028 326.433L461.768 329.371L464.173 328.292L466.579 330.45L468.449 328.292L466.579 323.484L465.777 319.741L464.44 317.605V315.699L465.777 313.027L467.647 314.106L465.242 316.508L465.511 318.112L468.985 320.518L470.064 322.388L511.213 297.269L515.108 302.462M504.532 384.653L501.324 391.065M199.886 125.799L192.137 160.181L164.109 151.72M205.942 104.777L207.848 95.4668M209.444 87.6598L209.962 85.1246M214.223 67.0365L213.425 68.7913M215.144 63.8899L216.629 58.8159" stroke="#E22021" stroke-width="0.69" stroke-miterlimit="3.86"/>
</svg>
