<svg width="25" height="34" viewBox="0 0 25 34" fill="none" xmlns="http://www.w3.org/2000/svg">
<path d="M12.4417 33.2884C12.0305 33.2884 11.6463 33.1047 11.3884 32.7836C8.7167 29.4619 0 18.1779 0 12.4424C0 5.58163 5.58145 0 12.4419 0C19.3025 0 24.8837 5.58163 24.8837 12.4424C24.8837 18.1779 16.167 29.4619 13.4954 32.7836C13.2371 33.1045 12.8531 33.2884 12.4417 33.2884ZM12.4417 2.80845C7.12982 2.80845 2.80791 7.13036 2.80791 12.4424C2.80791 17.7543 7.13 22.076 12.4417 22.076C17.7534 22.076 22.0755 17.7543 22.0755 12.4424C22.0756 7.13018 17.7536 2.80845 12.4417 2.80845Z" fill="url(#paint0_linear_225_235)"/>
<path d="M12.4416 20.6531C7.91419 20.6531 4.23132 16.9699 4.23132 12.4425C4.23132 7.91504 7.91419 4.23145 12.4416 4.23145C16.969 4.23145 20.6521 7.91504 20.6521 12.4425C20.6521 16.9699 16.9692 20.6531 12.4416 20.6531Z" fill="url(#paint1_linear_225_235)"/>
<path d="M12.4415 0.218262C5.69028 0.218262 0.217346 5.69119 0.217346 12.4424C0.217346 18.083 8.75049 29.1565 11.558 32.647C12.0119 33.2117 12.871 33.2117 13.3251 32.647C16.1324 29.1563 24.6656 18.0829 24.6656 12.4424C24.6656 5.69119 19.1926 0.218262 12.4415 0.218262ZM12.4415 22.2943C7.00057 22.2943 2.58958 17.8835 2.58958 12.4424C2.58958 7.00148 7.00057 2.59049 12.4415 2.59049C17.8825 2.59049 22.2934 7.00148 22.2934 12.4424C22.2935 17.8835 17.8827 22.2943 12.4415 22.2943Z" fill="#E22021"/>
<path d="M20.4342 12.4423C20.4342 16.8565 16.8557 20.435 12.4415 20.435C8.02723 20.435 4.44891 16.8565 4.44891 12.4423C4.44891 8.0282 8.02723 4.44971 12.4415 4.44971C16.8557 4.44971 20.4342 8.0282 20.4342 12.4423Z" fill="#E22021"/>
<defs>
<linearGradient id="paint0_linear_225_235" x1="5.85745" y1="-3.22248" x2="21.4153" y2="32.9795" gradientUnits="userSpaceOnUse">
<stop stop-color="white"/>
<stop offset="1" stop-color="#790000"/>
</linearGradient>
<linearGradient id="paint1_linear_225_235" x1="5.73273" y1="-3.16902" x2="21.2908" y2="33.0333" gradientUnits="userSpaceOnUse">
<stop stop-color="white"/>
<stop offset="1" stop-color="#790000"/>
</linearGradient>
</defs>
</svg>
