<svg width="48" height="48" viewBox="0 0 48 48" fill="none" xmlns="http://www.w3.org/2000/svg">
<path d="M43.5 15C43.1022 15 42.7206 15.158 42.4393 15.4393C42.158 15.7206 42 16.1022 42 16.5V40.5C42 40.8978 41.842 41.2794 41.5607 41.5607C41.2794 41.842 40.8978 42 40.5 42H7.5C7.10218 42 6.72064 41.842 6.43934 41.5607C6.15804 41.2794 6 40.8978 6 40.5V7.5C6 7.10218 6.15804 6.72064 6.43934 6.43934C6.72064 6.15804 7.10218 6 7.5 6H31.5C31.8978 6 32.2794 5.84196 32.5607 5.56066C32.842 5.27936 33 4.89782 33 4.5C33 4.10218 32.842 3.72064 32.5607 3.43934C32.2794 3.15804 31.8978 3 31.5 3H7.5C6.30653 3 5.16193 3.47411 4.31802 4.31802C3.47411 5.16193 3 6.30653 3 7.5V40.5C3 41.6935 3.47411 42.8381 4.31802 43.682C5.16193 44.5259 6.30653 45 7.5 45H40.5C41.6935 45 42.8381 44.5259 43.682 43.682C44.5259 42.8381 45 41.6935 45 40.5V16.5C45 16.1022 44.842 15.7206 44.5607 15.4393C44.2794 15.158 43.8978 15 43.5 15Z" fill="#E12226"/>
<path d="M13.065 16.9351C12.7825 16.6526 12.3994 16.4939 12 16.4939C11.6005 16.4939 11.2174 16.6526 10.935 16.9351C10.6525 17.2175 10.4938 17.6006 10.4938 18.0001C10.4938 18.1978 10.5328 18.3937 10.6085 18.5764C10.6842 18.7592 10.7951 18.9252 10.935 19.0651L22.935 31.0651C23.0751 31.2041 23.2414 31.3141 23.4241 31.3887C23.6069 31.4634 23.8026 31.5012 24 31.5001H24.105C24.3161 31.4843 24.5215 31.424 24.7076 31.3232C24.8937 31.2223 25.0564 31.0833 25.185 30.9151L44.685 5.41506C44.8993 5.09904 44.985 4.7132 44.9246 4.33618C44.8643 3.95916 44.6624 3.61934 44.3602 3.38599C44.058 3.15264 43.6782 3.04331 43.2981 3.0803C42.9181 3.11729 42.5665 3.29781 42.315 3.58506L23.85 27.7351L13.065 16.9351Z" fill="#E12226"/>
</svg>
