<svg width="44" height="48" viewBox="0 0 44 48" fill="none" xmlns="http://www.w3.org/2000/svg">
<path d="M18.9282 15.9871C18.9282 12.9468 16.4533 10.478 13.42 10.478C10.3797 10.478 7.91135 12.9533 7.91135 15.9871C7.91135 19.0274 10.3861 21.4953 13.42 21.4953C16.4533 21.4953 18.9282 19.0274 18.9282 15.9871ZM10.0334 15.9871C10.0334 14.1241 11.55 12.607 13.413 12.607C15.2757 12.607 16.7928 14.1241 16.7928 15.9871C16.7928 17.8496 15.2757 19.3664 13.413 19.3664C11.55 19.3664 10.0334 17.8496 10.0334 15.9871ZM12.9139 36.5108H8.36341V29.9579C8.36369 29.8443 8.34151 29.7317 8.29816 29.6266C8.25481 29.5216 8.19113 29.4261 8.11079 29.3457C8.03045 29.2654 7.93502 29.2016 7.82999 29.1582C7.72495 29.1148 7.61238 29.0926 7.49873 29.0928C7.38506 29.0926 7.27246 29.1148 7.16739 29.1582C7.06233 29.2016 6.96687 29.2653 6.8865 29.3457C6.80612 29.426 6.74242 29.5215 6.69904 29.6266C6.65567 29.7316 6.63347 29.8442 6.63373 29.9579V36.5108H4.6979C4.61173 36.5108 4.51828 36.4442 4.51828 36.3311V29.9311C4.51828 27.0908 6.83333 24.7749 9.67402 24.7749H17.0585C18.0904 24.7749 19.0082 25.0615 19.8663 25.6465C20.0526 25.7729 20.2591 25.8327 20.4651 25.8327C20.8046 25.8327 21.1371 25.6733 21.3432 25.3676C21.6762 24.8819 21.5497 24.2228 21.0639 23.8904C19.8595 23.0656 18.5094 22.6465 17.0586 22.6465H9.67402C5.65562 22.6465 2.3894 25.9131 2.3894 29.9311V36.3311C2.3894 37.6019 3.42757 38.6401 4.6979 38.6401H12.9139C13.4996 38.6401 13.9789 38.1608 13.9789 37.575C13.9789 36.9897 13.4996 36.5108 12.9139 36.5108ZM32.2344 27.7957C35.0282 27.7957 37.3034 25.52 37.3034 22.7262C37.3034 19.9318 35.0282 17.657 32.2344 17.657C29.44 17.657 27.1644 19.9319 27.1644 22.7261C27.1644 25.52 29.44 27.7957 32.2344 27.7957ZM32.2344 19.7855C33.8575 19.7855 35.1746 21.103 35.1746 22.7262C35.1746 24.3493 33.8575 25.6669 32.2344 25.6669C30.6112 25.6669 29.2933 24.3494 29.2933 22.7262C29.2933 21.103 30.6112 19.7855 32.2344 19.7855ZM40.2039 30.7958C38.9666 29.5319 37.3104 28.8404 35.534 28.8404H28.7279C28.562 28.8335 28.3684 28.8335 28.1493 28.8599C27.5636 28.9265 27.1514 29.4591 27.2181 30.0442C27.2843 30.5832 27.7433 30.9823 28.2758 30.9823C28.3157 30.9823 28.362 30.9823 28.4022 30.9754C28.4684 30.9689 28.5684 30.9689 28.6811 30.9689H35.5274C36.7246 30.9689 37.8425 31.4347 38.6739 32.286C39.5056 33.1381 39.9645 34.282 39.9645 35.5063V41.2873C39.9645 41.321 39.9515 41.341 39.9112 41.341H38.6739V35.5331C38.6739 35.0539 38.2881 34.6682 37.8092 34.6682C37.3303 34.6682 36.9446 35.0539 36.9446 35.5331V41.341H32.1612C31.5753 41.341 31.0961 41.8198 31.0961 42.4051C31.0961 42.991 31.5754 43.4694 32.1612 43.4694H39.9112C41.1158 43.4694 42.0938 42.4917 42.0938 41.2873V35.5064C42.1003 33.7165 41.4283 32.0465 40.2039 30.7958Z" fill="#E12226"/>
<path d="M17.8376 30.7958C17.8376 33.1511 19.7535 35.0604 22.1014 35.0604C24.4567 35.0604 26.366 33.1446 26.366 30.7958C26.366 28.4408 24.4502 26.5319 22.1014 26.5319C19.7469 26.5319 17.8376 28.4474 17.8376 30.7958ZM22.1014 28.6608C23.279 28.6608 24.2376 29.6185 24.2376 30.7958C24.2376 31.9734 23.2791 32.932 22.1014 32.932C20.9241 32.932 19.9664 31.9735 19.9664 30.7958C19.9664 29.6185 20.9241 28.6608 22.1014 28.6608ZM28.5949 37.5019C27.5636 36.4442 26.1798 35.8658 24.703 35.8658H19.3876C16.327 35.8658 13.8388 38.3536 13.8388 41.4138V46.0313C13.8388 47.1154 14.7241 48 15.8082 48H28.2225C29.2934 48 30.1648 47.1154 30.1648 46.0313V41.4138C30.1787 39.9304 29.6128 38.5402 28.5949 37.5019ZM19.394 37.9942H24.7095C25.6079 37.9942 26.453 38.347 27.0782 38.9922C27.7035 39.6378 28.0494 40.4963 28.0494 41.4138V45.8715H27.4107V41.441C27.411 41.3274 27.3888 41.2148 27.3454 41.1097C27.302 41.0046 27.2383 40.9092 27.158 40.8288C27.0776 40.7484 26.9821 40.6847 26.8771 40.6413C26.772 40.5979 26.6594 40.5757 26.5457 40.5759C26.4321 40.5757 26.3195 40.5979 26.2145 40.6413C26.1094 40.6847 26.014 40.7485 25.9337 40.8289C25.8533 40.9092 25.7897 41.0047 25.7463 41.1097C25.703 41.2148 25.6808 41.3274 25.6811 41.441V45.8715H18.6753V41.441C18.6753 40.9617 18.2896 40.5759 17.8106 40.5759C17.3317 40.5759 16.9457 40.9617 16.9457 41.441V45.8715H15.9745V41.4138C15.9745 39.5248 17.5045 37.9942 19.394 37.9942ZM43.2117 11.8354L37.0108 8.78212V1.81637C37.0108 0.798394 36.2125 0 35.1945 0H30.8105C29.7926 0 28.9946 0.798394 28.9946 1.81626V4.84999L22.7604 1.81626C22.1288 1.5102 21.41 1.5102 20.7779 1.81626L0.633315 11.6822C0.0743769 11.9554 -0.158627 12.6338 0.11413 13.1928C0.208089 13.3825 0.353175 13.5422 0.533036 13.6539C0.712896 13.7656 0.92038 13.8248 1.1321 13.825C1.2983 13.825 1.47115 13.7847 1.63131 13.7115L21.7692 3.84555L29.6197 7.6708C29.6327 7.67767 29.6462 7.68423 29.6592 7.69068C29.666 7.69068 29.6726 7.69724 29.6795 7.69724C29.7059 7.71066 29.7396 7.71711 29.7661 7.73095C29.7726 7.73095 29.7791 7.73751 29.7856 7.73751C29.8193 7.74396 29.8458 7.75739 29.8791 7.76384H29.8925C29.9258 7.7704 29.9588 7.77685 29.999 7.77685C30.0385 7.78382 30.0721 7.78382 30.112 7.78382C30.145 7.78382 30.1851 7.78382 30.2181 7.77685H30.245C30.2714 7.77685 30.3051 7.7704 30.3315 7.76384H30.351C30.3847 7.75739 30.4112 7.75052 30.438 7.74407C30.451 7.73751 30.4644 7.73751 30.4709 7.73095C30.4913 7.72367 30.5112 7.71711 30.5307 7.71066C30.5442 7.70411 30.551 7.70411 30.5644 7.69713C30.5909 7.68423 30.6177 7.6708 30.6442 7.65738C30.6506 7.65051 30.6572 7.65051 30.6709 7.64396C30.6909 7.63095 30.7173 7.61752 30.7372 7.60451C30.7441 7.59723 30.7506 7.59723 30.7571 7.59067C30.8104 7.55123 30.8636 7.51106 30.9101 7.46434C30.9165 7.45778 30.9165 7.45778 30.9238 7.45133C30.9434 7.43135 30.9632 7.4045 30.9835 7.38462C30.9835 7.37807 30.9901 7.37807 30.9901 7.37161C31.01 7.34477 31.0299 7.31833 31.0502 7.29117C31.0502 7.28462 31.0567 7.28462 31.0567 7.27806C31.0697 7.25829 31.0831 7.23175 31.0962 7.21146C31.1027 7.19845 31.11 7.19189 31.1165 7.17847C31.123 7.17202 31.123 7.16515 31.1299 7.15818C31.1364 7.15172 31.1364 7.14517 31.1364 7.13872C31.143 7.11873 31.1563 7.09844 31.1628 7.07201C31.1697 7.059 31.1767 7.04558 31.1767 7.03174C31.1831 7.01228 31.1897 6.99229 31.1961 6.972C31.2027 6.95213 31.2027 6.93912 31.2097 6.91872C31.2161 6.89884 31.2161 6.88583 31.2226 6.86596C31.2298 6.84556 31.2298 6.82569 31.2298 6.80612C31.2298 6.79238 31.2364 6.7724 31.2364 6.7594C31.2364 6.73255 31.2364 6.71257 31.2429 6.68624V2.25532H34.7421V9.50694C34.7421 9.52734 34.7421 9.55377 34.7486 9.57323C34.7486 9.58676 34.7486 9.60695 34.7555 9.62006C34.7555 9.63984 34.7621 9.66023 34.7621 9.6798C34.7621 9.69967 34.7689 9.71997 34.7755 9.73339C34.7823 9.7464 34.7823 9.76638 34.7889 9.7798C34.7954 9.79968 34.8019 9.81956 34.8088 9.83996C34.8153 9.85296 34.8153 9.86639 34.8218 9.8794C34.8291 9.89969 34.8356 9.91957 34.8486 9.93913C34.8555 9.95255 34.8621 9.96639 34.8685 9.9794C34.8751 9.99918 34.8885 10.0187 34.8954 10.0326C34.9019 10.0461 34.9153 10.0656 34.9218 10.079C34.9283 10.0927 34.9417 10.1123 34.9482 10.1257C34.9621 10.1452 34.9751 10.159 34.9885 10.1789C34.9949 10.192 35.008 10.2053 35.0152 10.2122C35.0283 10.2322 35.0417 10.2452 35.0612 10.2652C35.0681 10.2789 35.0815 10.2855 35.0885 10.2919C35.1015 10.3054 35.1214 10.3183 35.1344 10.3387C35.1482 10.3522 35.1612 10.3586 35.1681 10.3716C35.1811 10.3851 35.2014 10.3915 35.2149 10.4053C35.2278 10.4184 35.2478 10.4249 35.2607 10.4383C35.2747 10.4448 35.2877 10.4513 35.3011 10.4651C35.321 10.4782 35.3409 10.4851 35.3608 10.4981C35.3673 10.4981 35.3673 10.5045 35.3743 10.5045L42.2064 13.8717C42.3667 13.9514 42.5394 13.9907 42.7056 13.9907C43.1247 13.9907 43.5243 13.7582 43.7235 13.3586C44.0028 12.7932 43.7703 12.1147 43.2117 11.8354Z" fill="#E12226"/>
</svg>
