<svg width="48" height="48" viewBox="0 0 48 48" fill="none" xmlns="http://www.w3.org/2000/svg">
<g clip-path="url(#clip0_164_1196)">
<path d="M39.4849 30.3561V21.2361C39.4849 14.4619 35.1495 8.55488 29.1803 6.34845C29.25 6.00002 29.2887 5.64396 29.2887 5.28777C29.2888 2.36908 26.9197 0 24.0011 0C21.0824 0 18.7133 2.36908 18.7133 5.28777C18.7133 5.6362 18.7519 5.9845 18.8139 6.31742C16.7623 7.04518 14.8655 8.19869 13.2475 9.76257C10.1972 12.7045 8.51722 16.6606 8.51722 20.9032V30.3561C8.51722 30.6891 8.24623 30.9678 7.90555 30.9678C5.0488 30.9678 2.61003 33.1201 2.3468 35.8607C2.19967 37.3859 2.70299 38.9033 3.73264 40.0336C4.75454 41.1562 6.21782 41.8066 7.74291 41.8066H17.0797C17.4668 45.2827 20.4243 48.0001 24.0011 48.0001C27.5778 48.0001 30.5353 45.2827 30.9224 41.8066H40.2592C41.7844 41.8066 43.2476 41.1562 44.2695 40.0336C45.2914 38.9033 45.7947 37.3859 45.6553 35.8607C45.3921 33.1201 42.9457 30.9678 40.0966 30.9678C40.0161 30.9683 39.9364 30.9528 39.8619 30.9222C39.7875 30.8916 39.7199 30.8466 39.663 30.7897C39.6061 30.7328 39.5611 30.6652 39.5305 30.5908C39.4999 30.5163 39.4844 30.4366 39.4849 30.3561ZM24.0011 3.09672C25.2087 3.09672 26.192 4.07995 26.192 5.28764C26.192 5.38822 26.1765 5.48118 26.1609 5.58177C25.6345 5.50432 25.1003 5.45015 24.566 5.43464C23.6447 5.40361 22.7389 5.46567 21.8409 5.58953C21.8254 5.48894 21.8099 5.39598 21.8099 5.29539C21.8101 4.07995 22.7934 3.09672 24.0011 3.09672ZM24.0011 44.9031C22.1353 44.9031 20.5714 43.5715 20.2075 41.8064H27.7945C27.4308 43.5716 25.8669 44.9031 24.0011 44.9031ZM42.574 36.1549C42.6359 36.8207 42.4268 37.4632 41.9856 37.9509C41.5288 38.4387 40.9249 38.7096 40.2592 38.7096H7.74304C7.0772 38.7096 6.47343 38.4386 6.02428 37.9509C5.57526 37.4632 5.3662 36.8206 5.42813 36.1549C5.53647 34.9858 6.62818 34.0645 7.90555 34.0645C9.94947 34.0645 11.6139 32.4001 11.6139 30.3561V20.9032C11.6139 17.5122 12.961 14.3458 15.3998 11.9923C17.7301 9.73942 20.765 8.5161 24.0011 8.5161C24.1559 8.5161 24.3029 8.5161 24.4578 8.52385C31.0307 8.75606 36.3882 14.4619 36.3882 21.2361V30.3561C36.3882 32.4001 38.0526 34.0645 40.0966 34.0645C41.3739 34.0645 42.4579 34.9858 42.574 36.1549Z" fill="#E12226"/>
</g>
<defs>
<clipPath id="clip0_164_1196">
<rect width="48" height="48" fill="white"/>
</clipPath>
</defs>
</svg>
