<svg width="69" height="49" viewBox="0 0 69 49" fill="none" xmlns="http://www.w3.org/2000/svg">
<path d="M68.0158 22.3114L60.5421 2.18951C60.2466 1.39371 59.6569 0.760054 58.8819 0.404721C58.1065 0.0500545 57.2421 0.0167464 56.4463 0.311725L51.4439 2.16939C49.7971 2.7812 48.9548 4.61889 49.5664 6.26565L49.6475 6.48415C48.464 6.93341 47.1431 6.44271 45.1241 5.59708C42.1095 4.33496 38.0207 2.64024 32.83 5.88673C28.6172 3.26457 25.3116 3.91142 22.384 4.49431C20.897 4.78982 19.4806 5.06801 18.0178 4.91666C17.9767 4.53228 17.8713 4.1535 17.6894 3.79817C17.3005 3.03901 16.6415 2.4773 15.8342 2.21683L10.756 0.578723C9.94818 0.318253 9.08523 0.389133 8.32633 0.777107C7.56743 1.16601 7.00572 1.82499 6.74552 2.63238L0.154078 23.0607C-0.385116 24.7327 0.536324 26.5316 2.2084 27.0708L7.28645 28.7094C7.60202 28.8118 7.93169 28.864 8.26344 28.8642C8.76214 28.8642 9.2579 28.7454 9.71582 28.511C9.99867 28.3661 10.2432 28.173 10.4658 27.9593C10.4971 28.1139 10.5391 28.2667 10.5769 28.4202L9.30559 30.7969C8.7604 31.8168 8.65475 33.0535 9.01635 34.1894C9.36835 35.2955 10.1107 36.1789 11.0844 36.6653C11.9015 37.1035 12.8382 37.2667 13.7553 37.1304C13.5018 37.9713 13.5066 38.8934 13.7814 39.7575C14.1334 40.8636 14.8758 41.7472 15.8495 42.2337C16.8679 42.7783 18.0402 42.892 19.1511 42.5559C19.5881 42.4241 20.0017 42.2245 20.3769 41.9645C20.7334 43.0534 21.47 43.9225 22.4327 44.4035C23.4508 44.9482 24.6231 45.0618 25.734 44.7258C25.978 44.6518 26.2152 44.557 26.4428 44.4423C26.7769 45.7833 27.7304 46.9776 28.919 47.6133C29.4867 47.9167 30.1552 48.1123 30.8493 48.1123C32.1104 48.1123 33.4553 47.466 34.4282 45.6475L34.6179 45.2926L34.8329 45.4053L35.3403 45.6699C35.9617 45.9898 36.5691 46.1307 37.1401 46.1307C38.5648 46.1307 39.7615 45.2527 40.3733 44.0867C40.7946 43.2843 40.9429 42.3304 40.7385 41.4044C41.2525 41.4311 41.7722 41.3699 42.2803 41.216C43.4211 40.8703 44.3574 40.1043 44.9164 39.0591C45.3681 38.2147 45.5315 37.2669 45.3954 36.3321C46.3496 36.7282 47.4049 36.7798 48.4114 36.4749C49.5621 36.1263 50.5065 35.3532 51.0703 34.2991C51.5312 33.4369 51.6948 32.4681 51.5484 31.5145C53.1036 32.1345 54.6042 31.8509 55.6461 30.7094C56.7023 29.5525 57.0575 27.7801 56.6625 26.1985L56.9188 26.1065L56.9335 26.1013L57.0401 26.388C57.5167 27.6702 58.7364 28.4644 60.0302 28.4644C60.4077 28.4644 60.7822 28.3969 61.1359 28.2652L66.138 26.4076C67.7851 25.7958 68.6274 23.9585 68.0158 22.3114ZM9.54248 26.0895C9.43297 26.4286 9.19621 26.7059 8.87538 26.87C8.55403 27.0342 8.19097 27.0644 7.85242 26.9553L2.77411 25.3162C2.06957 25.0891 1.6812 24.3311 1.90836 23.6266L8.50007 3.19835C8.60932 2.85954 8.84607 2.58228 9.16677 2.41814C9.35662 2.32018 9.56707 2.26885 9.7807 2.26839C9.91959 2.26847 10.0576 2.29032 10.1897 2.33314L15.268 3.97151C15.6069 4.08076 15.8841 4.31751 16.0483 4.6382C16.2124 4.95903 16.2426 5.32209 16.1335 5.66117L10.8712 21.9713C10.8482 22.0158 10.8259 22.0614 10.8101 22.1107C10.7638 22.2532 10.7281 22.3975 10.6875 22.541L9.54248 26.0895ZM11.9314 35.028C11.384 34.7546 10.9726 34.2583 10.7732 33.6305C10.5616 32.9658 10.6193 32.25 10.9313 31.6665L12.3676 28.9812C12.3678 28.981 12.3682 28.9807 12.3684 28.9803L13.0544 27.6975C13.6935 26.5032 15.1744 26.0417 16.3761 26.6482C17.1645 27.1994 18.3469 28.3714 17.4497 30.0486L16.9609 30.9625L15.3249 34.0212C14.6758 35.2299 13.1647 35.6883 11.9314 35.028ZM20.092 39.5858C19.78 40.1697 19.2557 40.598 18.6159 40.7918C17.9765 40.9857 17.3025 40.9202 16.6964 40.5965C16.1491 40.3231 15.7377 39.8265 15.5382 39.1987C15.3267 38.5344 15.3846 37.8184 15.6967 37.2351L16.9506 34.891L18.5866 31.8324C18.8986 31.2487 19.4229 30.8206 20.0623 30.6268C20.7021 30.4324 21.3754 30.4981 21.9597 30.8104C22.5434 31.1224 22.9714 31.6467 23.1653 32.2865C23.3592 32.9259 23.2937 33.5999 22.9813 34.1838L22.5219 35.0432C22.5217 35.0441 22.521 35.0449 22.5205 35.0459L20.654 38.5354L20.6537 38.5359L20.092 39.5858ZM25.1991 42.9615C24.5593 43.1554 23.886 43.0899 23.2796 42.7662C22.7323 42.4928 22.3211 41.9965 22.1214 41.3688C21.9105 40.7051 21.9675 39.9907 22.2784 39.4076L22.2798 39.405L24.1463 35.9155L24.1467 35.9143L24.1478 35.9125C24.4602 35.33 24.9838 34.9032 25.6223 34.7096C26.2614 34.5148 26.9354 34.5806 27.5192 34.8932C28.7308 35.5414 29.1894 37.0546 28.5415 38.2662L27.6084 40.0112L26.7811 41.5578L26.7802 41.5595L26.6752 41.7557C26.3632 42.3392 25.8386 42.7677 25.1991 42.9615ZM29.7885 45.9876C28.58 45.3413 27.7153 43.72 28.407 42.427L29.2342 40.8804L29.2351 40.8783C29.5577 40.277 30.1311 39.7939 30.809 39.5531C31.4857 39.3125 32.1651 39.3446 32.7225 39.6428C33.9372 40.2922 34.1332 40.8604 34.1745 41.2313C34.2375 41.7921 34.0001 42.5378 33.4057 43.649L33.4047 43.6517L32.8023 44.7779C31.782 46.6871 30.4765 46.3552 29.7885 45.9876ZM38.7409 43.2304C38.3062 44.06 37.3472 44.6296 36.184 44.0312L35.6901 43.7734C35.6085 43.7303 35.5323 43.6903 35.4615 43.6534C35.8348 42.8231 36.1069 41.9208 36.0067 41.0263C35.8937 40.0176 35.334 39.1764 34.3185 38.4669L37.949 40.4165C39.1622 41.2684 39.1581 42.4356 38.7409 43.2304ZM54.2844 29.4666C53.6909 30.1174 52.8762 30.1726 51.8623 29.6298L49.233 28.2237L49.2276 28.221C49.2006 28.2066 49.1725 28.1983 49.145 28.1869L40.6669 23.5849C40.2205 23.3415 39.6602 23.5077 39.4172 23.9554C39.3595 24.0618 39.3232 24.1785 39.3106 24.2989C39.298 24.4193 39.3092 24.541 39.3436 24.657C39.378 24.7731 39.4349 24.8812 39.5111 24.9753C39.5873 25.0693 39.6813 25.1474 39.7877 25.2051L48.4451 29.9045C49.0181 30.2405 49.4437 30.7691 49.6395 31.4145C49.8454 32.0938 49.7761 32.8094 49.4442 33.4297C49.1126 34.0499 48.5557 34.5049 47.8763 34.7108C47.1958 34.9164 46.4807 34.8473 45.861 34.5157L43.247 33.1176C43.201 33.0797 43.1514 33.0464 43.099 33.0181L36.7904 29.645C36.6837 29.5879 36.5667 29.5523 36.4462 29.5404C36.3258 29.5285 36.2041 29.5405 36.0883 29.5757C35.9725 29.6108 35.8647 29.6684 35.7711 29.7452C35.6776 29.8221 35.6001 29.9166 35.5431 30.0234C35.486 30.1301 35.4504 30.2471 35.4385 30.3675C35.4267 30.488 35.4386 30.6096 35.4738 30.7255C35.5089 30.8413 35.5665 30.9491 35.6433 31.0426C35.7202 31.1362 35.8147 31.2137 35.9214 31.2707L42.0715 34.559C42.117 34.5963 42.1665 34.6303 42.2204 34.6591C42.8317 34.9859 43.28 35.5344 43.4828 36.2042C43.6856 36.8737 43.6173 37.5788 43.2904 38.1898C42.9636 38.801 42.4148 39.249 41.7453 39.4522C41.0762 39.6547 40.3708 39.5866 39.7598 39.2598L38.4253 38.5462C38.3595 38.512 38.2899 38.4859 38.2178 38.4685L32.8318 35.5764C32.3832 35.3339 31.8241 35.5035 31.5838 35.9524C31.5265 36.059 31.4907 36.1759 31.4786 36.2963C31.4665 36.4167 31.4782 36.5384 31.5132 36.6543C31.5481 36.7702 31.6055 36.8781 31.6821 36.9718C31.7587 37.0655 31.8531 37.1432 31.9598 37.2004L33.0917 37.8082C32.3232 37.5249 31.4814 37.4714 30.6391 37.6811C30.8771 35.9359 30.03 34.1451 28.3886 33.2671C27.38 32.7276 26.2194 32.6102 25.1178 32.9359C25.1096 32.5343 25.0462 32.1358 24.9294 31.7515C24.5928 30.6404 23.8465 29.7288 22.8286 29.1844C21.8054 28.6376 20.6592 28.5434 19.6218 28.8327C19.6041 27.2666 18.6101 25.9643 17.4263 25.1332C17.3855 25.1017 17.3421 25.0738 17.2966 25.0495C15.5293 24.1046 13.3933 24.513 12.0842 25.9113C12.063 24.9527 12.1941 23.99 12.4604 23.048L17.7217 6.74115C19.5002 6.947 21.1458 6.62071 22.7431 6.30228C25.3987 5.77415 27.9208 5.27213 31.1798 7.04852C30.4698 7.61383 29.7557 8.25895 29.0457 8.97614C28.4837 9.54451 27.9057 10.112 27.3419 10.6655C25.2864 12.6844 23.5112 14.428 23.0036 15.6655C22.9432 15.8125 22.9219 15.9726 22.9417 16.1303C22.9616 16.288 23.0218 16.4379 23.1167 16.5654C26.7856 21.4997 31.232 19.8253 34.8033 18.4805C37.4808 17.4719 39.7932 16.6005 41.6353 18.0582C41.67 18.0858 41.7067 18.1107 41.7451 18.133C42.6248 18.6427 43.8366 19.2411 45.2396 19.934C48.6319 21.6096 53.2779 23.9042 54.4784 25.729C55.2851 26.9544 55.0292 28.6507 54.2844 29.4666ZM55.8754 24.5228C54.266 22.3404 49.7296 20.0954 46.0565 18.2815C44.7128 17.6178 43.5482 17.0429 42.7242 16.5696C40.0782 14.5246 37.067 15.6583 34.154 16.7554C30.7014 18.0549 27.6992 19.185 24.9569 15.9224C25.6011 14.9598 27.1392 13.4492 28.6339 11.9813C29.204 11.4214 29.7879 10.8477 30.3563 10.2733C31.3412 9.27858 32.3267 8.44188 33.2876 7.78064C37.9313 4.58731 41.3737 6.02609 44.4119 7.29754C45.8324 7.89229 47.2824 8.4993 48.7166 8.4993C49.2434 8.4993 49.7674 8.4031 50.2878 8.20872L56.2915 24.3731L55.8754 24.5228ZM65.4965 24.6793L60.4944 26.5369C59.7983 26.7938 59.0255 26.4397 58.7681 25.7459L51.2947 5.62333C51.1708 5.28971 51.1852 4.92572 51.3352 4.59797C51.4855 4.27035 51.7519 4.0216 52.0857 3.89756L57.0878 2.03989C57.2359 1.98467 57.3927 1.95633 57.5508 1.95622C57.7422 1.95622 57.9334 1.99792 58.1137 2.08039C58.441 2.23041 58.6898 2.49715 58.8137 2.83116L66.2874 22.9532C66.5452 23.6474 66.1903 24.4215 65.4965 24.6793Z" fill="#E12226"/>
</svg>
