<svg width="41" height="42" viewBox="0 0 41 42" fill="none" xmlns="http://www.w3.org/2000/svg">
<rect width="41" height="42" fill="#E22021"/>
<path d="M25.6233 23.1001C25.2944 22.8989 24.8015 22.9544 24.5276 23.2249L22.3488 25.3679C22.2167 25.4979 22.0377 25.5709 21.8509 25.5709C21.6642 25.5709 21.4851 25.4979 21.3531 25.3679L16.4582 20.5479C16.3262 20.4178 16.252 20.2415 16.252 20.0576C16.252 19.8737 16.3262 19.6973 16.4582 19.5672L18.5095 17.5477C18.7842 17.2772 18.8243 16.8022 18.6011 16.4908L14.8688 11.2803C14.8172 11.2067 14.7507 11.1444 14.6735 11.0972C14.5962 11.0501 14.5099 11.0193 14.42 11.0066C14.3301 10.9939 14.2384 10.9996 14.1509 11.0235C14.0633 11.0473 13.9817 11.0887 13.9111 11.1451C13.9111 11.1451 11 13.4198 11 15.5108C11 24.0654 18.0419 31 26.7268 31C28.8499 31 30.9153 27.162 30.9153 27.162C31.0024 26.9953 31.0232 26.8025 30.9737 26.6215C30.9242 26.4404 30.808 26.284 30.6477 26.1828L25.6233 23.1001Z" fill="white"/>
</svg>
