<svg width="18" height="13" viewBox="0 0 18 13" fill="none" xmlns="http://www.w3.org/2000/svg">
<path d="M9.99206 0.000159234C9.8001 -0.00340019 9.61178 0.0527917 9.45316 0.160959C9.29454 0.269127 9.17347 0.423922 9.10668 0.603924C9.0399 0.783925 9.03072 0.980233 9.08041 1.16568C9.13009 1.35113 9.23619 1.51655 9.38402 1.63906L15.0415 6.48236L9.38053 11.3257C9.27711 11.4011 9.19044 11.4971 9.12599 11.6076C9.06154 11.7182 9.02071 11.8409 9.00607 11.9681C8.99144 12.0952 9.00332 12.224 9.04097 12.3464C9.07861 12.4687 9.14121 12.5819 9.2248 12.6788C9.30838 12.7757 9.41116 12.8542 9.52662 12.9094C9.64209 12.9646 9.76775 12.9953 9.89566 12.9995C10.0236 13.0037 10.151 12.9813 10.2698 12.9338C10.3887 12.8863 10.4964 12.8147 10.5861 12.7234L17.0578 7.19173C17.1596 7.1048 17.2413 6.99683 17.2974 6.87528C17.3534 6.75372 17.3824 6.62146 17.3824 6.4876C17.3824 6.35375 17.3534 6.22149 17.2974 6.09993C17.2413 5.97837 17.1596 5.87041 17.0578 5.78347L10.5861 0.234287C10.4221 0.088283 10.2116 0.00530436 9.99206 0.000159234Z" fill="white"/>
<path d="M0.992056 0.000159234C0.800099 -0.00340019 0.611781 0.0527917 0.453162 0.160959C0.294542 0.269127 0.173466 0.423922 0.106685 0.603924C0.0399038 0.783925 0.0307209 0.980233 0.0804075 1.16568C0.130094 1.35113 0.236193 1.51655 0.384023 1.63906L6.04153 6.48236L0.380528 11.3257C0.277106 11.4011 0.190436 11.4971 0.125986 11.6076C0.0615362 11.7182 0.0207063 11.8409 0.00607293 11.9681C-0.0085604 12.0952 0.00332085 12.224 0.0409666 12.3464C0.0786123 12.4687 0.141205 12.5819 0.224795 12.6788C0.308385 12.7757 0.411157 12.8542 0.526625 12.9094C0.642093 12.9646 0.767749 12.9953 0.895665 12.9995C1.02358 13.0037 1.15098 12.9813 1.26981 12.9338C1.38865 12.8863 1.49635 12.8147 1.58611 12.7234L8.05783 7.19173C8.15961 7.1048 8.24133 6.99683 8.29737 6.87528C8.3534 6.75372 8.38242 6.62146 8.38242 6.4876C8.38242 6.35375 8.3534 6.22149 8.29737 6.09993C8.24133 5.97837 8.15961 5.87041 8.05783 5.78347L1.58611 0.234287C1.42211 0.088283 1.21157 0.00530436 0.992056 0.000159234Z" fill="white"/>
</svg>
