<svg width="33" height="33" viewBox="0 0 33 33" fill="none" xmlns="http://www.w3.org/2000/svg">
<mask id="mask0_151_640" style="mask-type:luminance" maskUnits="userSpaceOnUse" x="0" y="0" width="33" height="33">
<path d="M33 0H0V33H33V0Z" fill="white"/>
</mask>
<g mask="url(#mask0_151_640)">
<path d="M32.6501 12.3338C32.8757 12.0517 33 11.6974 33 11.3362V1.06452C33 0.477568 32.5224 0 31.9355 0H26.6129C26.026 0 25.5484 0.477568 25.5484 1.06452V11.3363C25.5484 11.6974 25.6726 12.0517 25.8983 12.3338L27.6774 14.5577V15.9678H26.6129C26.026 15.9678 25.5484 16.4453 25.5484 17.0322V30.2351L21.2903 26.5324V5.85484H21.6022C21.8864 5.85484 22.1538 5.74406 22.3548 5.543L24.1075 3.79034C24.3502 3.5477 24.4839 3.22495 24.4839 2.88171C24.4839 2.17321 23.9074 1.59678 23.1989 1.59678H13.8387C13.2517 1.59678 12.7742 2.07434 12.7742 2.66129V4.79032C12.7742 5.37727 13.2517 5.85484 13.8387 5.85484H15.9678V21.9041L12.7742 19.1271V9.70418C12.7742 9.5812 12.7599 9.45809 12.7318 9.33847L10.7529 0.928455C10.6243 0.381762 10.1423 0 9.58067 0C9.01902 0 8.53704 0.381762 8.40834 0.928455L6.42952 9.33841C6.40141 9.45809 6.38709 9.58114 6.38709 9.70418V13.573L2.15238 9.89069C1.92239 9.69075 1.62798 9.58067 1.32326 9.58067H1.26358C0.566855 9.58067 0 10.1475 0 10.8442V31.7364C0 32.4332 0.566855 33 1.26358 33H25.3494C25.6709 33 25.9639 32.8783 26.1871 32.6798C26.4542 32.8807 26.786 33 27.1452 33H31.4033C32.2838 33 33.0001 32.2837 33.0001 31.4032V17.0322C33.0001 16.4453 32.5225 15.9678 31.9356 15.9678H30.871V14.5577L32.6501 12.3338ZM28.4655 13.8387L26.7623 11.7097H31.7861L30.0829 13.8387H28.4655ZM27.6774 2.88171C27.8785 3.08277 28.1458 3.19355 28.4301 3.19355H30.1182C30.4025 3.19355 30.6699 3.08277 30.8709 2.88171L31.9354 1.8172V10.6452H26.6128V1.8172L27.6774 2.88171ZM27.3656 1.06452H31.1828L30.1182 2.12903H28.4301L27.3656 1.06452ZM17.0322 5.85484H18.0968V4.79032H13.8387V2.66129H23.1989C23.3205 2.66129 23.4193 2.76016 23.4193 2.88171C23.4193 2.94059 23.3964 2.99595 23.3548 3.0376L21.6022 4.79032H19.1613V5.85484H20.2258V25.6068L17.0322 22.8298V5.85484ZM6.38709 27.6774H5.32258V18.2052L6.38709 19.1367V27.6774ZM7.45163 10.6452H9.04836V27.6774H7.45163V10.6452ZM11.6952 9.58067H7.46619L8.71854 4.25807H10.4429L11.6952 9.58067ZM10.1129 10.6452H11.7097V27.6774H10.1129V10.6452ZM12.7742 24.7254L16.1479 27.6774H12.7742V24.7254ZM9.58067 1.06452C9.64584 1.06452 9.70182 1.10883 9.71673 1.1723L10.1923 3.19355H8.96899L9.4446 1.1723C9.45951 1.10883 9.51543 1.06452 9.58067 1.06452ZM25.3493 31.9355H21.2903V30.871H20.2258V31.9355H19.1613V29.8064H18.0968V31.9355H17.0322V30.871H15.9678V31.9355H14.9032V29.8064H13.8387V31.9355H12.7742V30.871H11.7097V31.9355H10.6452V29.8064H9.58067V31.9355H8.51612V30.871H7.45163V31.9355H6.38709V29.8064H5.32258V31.9355H4.25807V30.871H3.19355V31.9355H1.26358C1.15387 31.9355 1.06452 31.8462 1.06452 31.7364V30.871H2.12903V29.8064H1.06452V28.7419H3.19355V27.6774H1.06452V26.6129H2.12903V25.5484H1.06452V24.4839H3.19355V23.4193H1.06452V22.3548H2.12903V21.2903H1.06452V20.2258H3.19355V19.1613H1.06452V18.0968H2.12903V17.0322H1.06452V15.9678H3.19355V14.9032H1.06452V13.8387H2.12903V12.7742H1.06452V10.8442C1.06452 10.7345 1.1538 10.6452 1.26358 10.6452H1.32326C1.3713 10.6452 1.41767 10.6625 1.45386 10.694L6.38709 14.9837V17.7222L4.25807 15.8593V28.7419H18.9811L12.7742 23.3109V20.5378L25.4799 31.5862C25.5234 31.624 25.5484 31.6788 25.5484 31.7364C25.5484 31.8462 25.4591 31.9355 25.3493 31.9355ZM31.4032 31.9355H27.1451C26.8517 31.9355 26.6129 31.6967 26.6129 31.4032V19.1613H31.9355V31.4032C31.9355 31.6967 31.6967 31.9355 31.4032 31.9355ZM31.9355 18.0968H26.6129V17.0322H31.9355V18.0968ZM28.7419 15.9678V14.9032H29.8064V15.9678H28.7419Z" fill="#E22021"/>
</g>
</svg>
