<svg width="33" height="33" viewBox="0 0 33 33" fill="none" xmlns="http://www.w3.org/2000/svg">
<mask id="mask0_150_593" style="mask-type:luminance" maskUnits="userSpaceOnUse" x="0" y="0" width="33" height="33">
<path d="M33 0H0V33H33V0Z" fill="white"/>
</mask>
<g mask="url(#mask0_150_593)">
<path d="M33 13.8387H31.804L30.0213 14.7767C29.8207 14.666 29.6121 14.5722 29.387 14.5157L27.1446 13.9546V13.6997C28.1366 13.0074 28.7419 11.8636 28.7419 10.6452V9.71479C28.7419 7.64704 27.1218 5.91666 25.1305 5.8564C25.0294 5.85382 24.9298 5.85745 24.8298 5.8624L25.4112 4.50132L22.5926 1.68358L20.9311 2.76499C20.2999 2.40945 19.6322 2.13267 18.9388 1.93853L18.5284 0H14.472L14.0617 1.93905C13.3683 2.13319 12.7001 2.40997 12.0693 2.76551L10.4078 1.6841L7.59171 4.50028L8.1632 5.8624C8.14139 5.86135 8.12059 5.85745 8.09873 5.85689C7.07944 5.8273 6.11944 6.19923 5.39016 6.90714C4.65986 7.61457 4.25807 8.56391 4.25807 9.58067V10.6452C4.25807 11.8636 4.86283 13.0068 5.85486 13.6991V13.9546L4.39217 14.3203L1.74102 12.7742H0V23.8033L5.2363 25.5484H6.25609L6.38344 25.1025L7.98853 26.0658C8.01482 26.9385 8.71471 27.6408 9.58662 27.6714C9.61732 28.5397 10.3151 29.2376 11.1834 29.2682C11.214 30.1365 11.9119 30.8343 12.7802 30.865C12.8118 31.7535 13.5395 32.4678 14.4354 32.4678C14.7681 32.4678 15.0943 32.364 15.3685 32.1793L15.8399 32.5956C16.1354 32.8558 16.5159 33 16.9109 33H17.0094C17.8951 33 18.6158 32.284 18.627 31.4012C19.5031 31.39 20.2126 30.6805 20.2237 29.8044C21.1004 29.7932 21.8104 29.0827 21.8205 28.206C22.7052 28.1852 23.4194 27.4625 23.4194 26.5728C23.4194 26.5193 23.4167 26.4666 23.4113 26.4133L33 21.6194V13.8387ZM27.6775 9.71479V10.6452C27.6775 11.5899 27.167 12.4725 26.3452 12.9483L26.0791 13.1022L26.0811 14.7865L28.7403 15.4508L22.8871 18.5316V17.0977C22.8871 16.3823 22.5981 15.7271 22.1249 15.2429L23.9516 14.7865V13.1009L23.686 12.9473C22.8648 12.4725 22.3548 11.5899 22.3548 10.6452V9.58067C22.3548 8.85478 22.6417 8.17593 23.1633 7.67044C23.6845 7.16524 24.3758 6.89282 25.0986 6.92093C26.5204 6.96353 27.6775 8.217 27.6775 9.71479ZM17.3025 18.1132L14.8931 17.3431C13.7951 16.9912 12.6065 16.9387 11.4825 17.1876L11.1775 17.2553V17.0977C11.1775 16.3638 11.6751 15.7266 12.3867 15.5483L15.4355 14.7865V13.1009L15.1699 12.9473C14.3486 12.4725 13.8387 11.5899 13.8387 10.6452V9.58067C13.8387 8.85478 14.1257 8.17593 14.6472 7.67044C15.1683 7.16524 15.864 6.89282 16.5824 6.92093C18.0043 6.96353 19.1613 8.217 19.1613 9.71479V10.6452C19.1613 11.5899 18.6509 12.4725 17.8291 12.9483L17.563 13.1022L17.565 14.7865L20.6133 15.5483C21.3249 15.7266 21.8225 16.3638 21.8225 17.0977V19.0921L21.6911 19.1613H21.3649L18.0927 18.2262C17.8348 18.1532 17.5692 18.1232 17.3025 18.1132ZM11.2967 7.9662C12.2962 6.02951 14.3081 4.79032 16.5 4.79032C18.6711 4.79032 20.6744 6.01289 21.6814 7.9233C21.4281 8.43138 21.2904 8.99409 21.2904 9.58067V10.6452C21.2904 11.8636 21.8951 13.0068 22.8871 13.6991V13.9546L20.7581 14.4876L18.6285 13.9546V13.6997C19.6206 13.0074 20.2258 11.8636 20.2258 10.6452V9.71479C20.2258 7.64704 18.6056 5.91666 16.6143 5.8564C15.5956 5.82653 14.635 6.19864 13.9058 6.90661C13.176 7.61457 12.7742 8.56391 12.7742 9.58067V10.6452C12.7742 11.8636 13.379 13.0068 14.371 13.6991V13.9546L12.2419 14.4876L10.1124 13.9546V13.6997C11.1044 13.0074 11.7096 11.8636 11.7096 10.6452V9.71479C11.7096 9.08844 11.559 8.49379 11.2967 7.9662ZM8.84877 4.74718L10.5493 3.04671L12.046 4.02078L12.3324 3.8451C13.05 3.40536 13.8255 3.08336 14.6371 2.88921L14.9646 2.81073L15.3349 1.06452H17.6656L18.0349 2.81021L18.3624 2.88844C19.1741 3.08283 19.9496 3.40484 20.6671 3.84458L20.9535 4.02027L22.4503 3.04619L24.1486 4.74511L23.5449 6.15863C23.134 6.33541 22.753 6.58409 22.4214 6.9056C22.3995 6.92688 22.3808 6.94974 22.3596 6.9716C21.1056 4.97823 18.8887 3.72581 16.5 3.72581C14.0942 3.72581 11.8711 4.98992 10.6202 7.00354C10.2855 6.65321 9.88727 6.36941 9.44601 6.17112L8.84877 4.74718ZM6.91933 14.7865V13.1009L6.65374 12.9473C5.83247 12.4725 5.32258 11.5899 5.32258 10.6452V9.58067C5.32258 8.85478 5.60951 8.17593 6.13111 7.67044C6.65221 7.16524 7.34509 6.89282 8.06626 6.92093C9.48809 6.96353 10.6452 8.217 10.6452 9.71479V10.6452C10.6452 11.5899 10.1347 12.4725 9.31295 12.9483L9.04683 13.1022L9.04895 14.7865L10.8751 15.2429C10.402 15.7271 10.1129 16.3823 10.1129 17.0977V17.4921L8.45271 17.861L8.49585 17.7103L8.51612 16.7266L5.70905 15.089L6.91933 14.7865ZM1.06452 13.8387H1.45254L5.28048 16.0714L3.34896 23.7972L1.06452 23.0355V13.8387ZM5.40887 24.4839L4.36124 24.1348L6.23765 16.6299L7.45164 17.3378V17.4899L5.45357 24.4839H5.40887ZM9.04836 26.0162C9.04836 25.8592 9.11177 25.7054 9.22309 25.5942L10.1586 24.6585C10.2699 24.5473 10.4237 24.4839 10.5807 24.4839C10.9097 24.4839 11.1775 24.7515 11.1775 25.0806C11.1775 25.2376 11.114 25.3914 11.0027 25.5027L10.0671 26.4383C9.95592 26.5495 9.80212 26.6129 9.64507 26.6129C9.31608 26.6129 9.04836 26.3452 9.04836 26.0162ZM10.6452 27.613C10.6452 27.456 10.7086 27.3021 10.8198 27.1909L11.7554 26.2553C11.8666 26.1441 12.0205 26.0807 12.1775 26.0807C12.5065 26.0807 12.7742 26.3484 12.7742 26.6774C12.7742 26.8344 12.7108 26.9882 12.5996 27.0994L11.664 28.035C11.5527 28.1462 11.3988 28.2096 11.2419 28.2096C10.9128 28.2096 10.6452 27.942 10.6452 27.613ZM12.2419 29.2097C12.2419 29.0528 12.3053 28.8989 12.4166 28.7877L13.3522 27.8521C13.4635 27.7409 13.6173 27.6775 13.7743 27.6775C14.1033 27.6775 14.371 27.9451 14.371 28.2741C14.371 28.4311 14.3076 28.585 14.1963 28.6962L13.2607 29.6318C13.1494 29.7431 12.9956 29.8065 12.8387 29.8065C12.5097 29.8065 12.2419 29.5387 12.2419 29.2097ZM14.4354 31.4032C14.1064 31.4032 13.8387 31.1356 13.8387 30.8065C13.8387 30.6495 13.9021 30.4957 14.0133 30.3845L14.9489 29.4488C15.0602 29.3376 15.2141 29.2742 15.371 29.2742C15.7001 29.2742 15.9678 29.5419 15.9678 29.8709C15.9678 30.0279 15.9044 30.1817 15.7931 30.2929L14.8575 31.2285C14.7463 31.3398 14.5924 31.4032 14.4354 31.4032ZM17.0094 31.9355H16.9109C16.7752 31.9355 16.6453 31.8861 16.5441 31.7964L16.146 31.4453L16.5458 31.0456C16.6885 30.903 16.7991 30.7333 16.881 30.551L17.365 30.9539C17.4915 31.0594 17.5645 31.2148 17.5645 31.3803C17.5645 31.6865 17.3155 31.9355 17.0094 31.9355ZM21.7826 27.1452H21.6905C21.557 27.1452 21.4265 27.0978 21.3244 27.0121L18.438 24.6068L17.7561 25.425L20.559 27.7603C20.685 27.8658 20.7581 28.0212 20.7581 28.1868C20.7581 28.493 20.5091 28.7419 20.203 28.7419H20.0867C19.9576 28.7419 19.8313 28.6962 19.7318 28.6131L16.8407 26.2041L16.1588 27.0222L18.9617 29.3579C19.0883 29.4626 19.1613 29.618 19.1613 29.7836C19.1613 30.0898 18.9123 30.3387 18.6062 30.3387C18.4019 30.3387 18.2028 30.2662 18.0461 30.136L16.8581 29.1458C16.5964 28.6109 16.0587 28.238 15.429 28.2156C15.3983 27.3474 14.7005 26.6496 13.8322 26.6189C13.8015 25.7505 13.1038 25.0528 12.2355 25.0221C12.2043 24.1335 11.4766 23.4194 10.5807 23.4194C10.1433 23.4194 9.71526 23.5966 9.406 23.9058L8.47039 24.8415C8.41453 24.8973 8.36827 24.9608 8.32125 25.0237L6.68621 24.0426L8.11953 19.0262L11.7128 18.2272C12.6554 18.0165 13.6492 18.0622 14.5685 18.3564L15.3526 18.6072L12.6944 19.9363C12.087 20.2406 11.7096 20.8516 11.7096 21.531V21.6362C11.7096 22.6194 12.5097 23.4194 13.4928 23.4194C13.8159 23.4194 14.1337 23.3315 14.4099 23.1649L16.3919 21.9765C16.79 21.7379 17.3244 21.7901 17.6682 22.0994L22.1654 26.1467C22.2857 26.2558 22.3548 26.4107 22.3548 26.5728C22.3548 26.8887 22.0983 27.1452 21.7826 27.1452ZM31.9355 20.9613L22.9684 25.4452C22.9394 25.4143 22.909 25.3849 22.877 25.3563L18.3806 21.309C17.9866 20.9535 17.4772 20.7581 16.9465 20.7581C16.5585 20.7581 16.1775 20.8636 15.8438 21.0637L13.8611 22.2527C13.7499 22.3198 13.6228 22.3548 13.4928 22.3548C13.0962 22.3548 12.7742 22.0329 12.7742 21.6362V21.531C12.7742 21.2568 12.9265 21.0109 13.1713 20.8885L16.1403 19.4041C16.6484 19.1495 17.2516 19.0927 17.7992 19.2501L21.144 20.2055L21.9541 20.2258L31.9355 14.9724V20.9613Z" fill="#E22021"/>
</g>
</svg>
