<svg width="33" height="33" viewBox="0 0 33 33" fill="none" xmlns="http://www.w3.org/2000/svg">
<mask id="mask0_151_656" style="mask-type:luminance" maskUnits="userSpaceOnUse" x="0" y="0" width="33" height="33">
<path d="M33 0H0V33H33V0Z" fill="white"/>
</mask>
<g mask="url(#mask0_151_656)">
<mask id="mask1_151_656" style="mask-type:luminance" maskUnits="userSpaceOnUse" x="0" y="0" width="33" height="33">
<path d="M33 0H0V33H33V0Z" fill="white"/>
</mask>
<g mask="url(#mask1_151_656)">
<path d="M6.89648 12.2461C6.89648 17.5771 11.2335 21.9141 16.5645 21.9141C21.8955 21.9141 26.2325 17.5771 26.2325 12.2461C26.2325 6.91509 21.8955 2.57812 16.5645 2.57812C11.2335 2.57812 6.89648 6.91509 6.89648 12.2461ZM16.5645 3.86719C21.1847 3.86719 24.9434 7.62589 24.9434 12.2461C24.9434 16.8664 21.1847 20.625 16.5645 20.625C11.9442 20.625 8.18561 16.8664 8.18561 12.2461C8.18561 7.62589 11.9442 3.86719 16.5645 3.86719Z" fill="#E22021"/>
<path d="M10.5957 11.0969L13.0939 13.5584L12.5192 17.018C12.4791 17.259 12.5786 17.5017 12.7763 17.6452C12.9736 17.7887 13.2353 17.8081 13.452 17.6958L16.5646 16.0794L19.677 17.6958C19.892 17.8073 20.1536 17.7899 20.3528 17.6452C20.5504 17.5017 20.6498 17.259 20.6098 17.018L20.035 13.5584L22.5334 11.0969C22.7073 10.9257 22.7695 10.6709 22.6939 10.4384C22.6185 10.2064 22.4183 10.0369 22.1768 10.0004L18.7097 9.4785L17.1409 6.3412C17.0319 6.12287 16.8086 5.98486 16.5646 5.98486C16.3204 5.98486 16.0973 6.12287 15.9881 6.3412L14.4192 9.4785L10.9521 10.0004C10.7108 10.0366 10.5105 10.2064 10.435 10.4384C10.3595 10.6709 10.4219 10.9257 10.5957 11.0969ZM14.9422 10.7033C15.1497 10.6721 15.3289 10.542 15.4229 10.3544L16.5646 8.07058L17.7064 10.3544C17.8003 10.542 17.9796 10.6721 18.187 10.7033L20.7105 11.0833L18.892 12.8746C18.7427 13.0219 18.6742 13.2326 18.7084 13.4396L19.1269 15.9575L16.8614 14.7812C16.7686 14.7329 16.6665 14.7088 16.5646 14.7088C16.4627 14.7088 16.3607 14.7329 16.2675 14.7812L14.0021 15.9575L14.4205 13.4396C14.455 13.2326 14.3865 13.0219 14.237 12.8746L12.4187 11.0833L14.9422 10.7033Z" fill="#E22021"/>
<path d="M17.209 0.644531C17.209 1.00054 16.9205 1.28906 16.5645 1.28906C16.2085 1.28906 15.9199 1.00054 15.9199 0.644531C15.9199 0.288529 16.2085 0 16.5645 0C16.9205 0 17.209 0.288529 17.209 0.644531Z" fill="#E22021"/>
<path d="M13.5268 0.379831C8.10498 1.76382 4.31836 6.64338 4.31836 12.246C4.31836 15.7257 5.78141 19.0045 8.34971 21.3266L4.46665 28.17C4.34178 28.3903 4.35738 28.6632 4.50644 28.8676C4.65548 29.0724 4.91028 29.1708 5.15827 29.1191L9.568 28.2035L11.1179 32.5709C11.202 32.8086 11.4173 32.9751 11.6686 32.9974C11.9198 33.0198 12.1607 32.8932 12.2854 32.674L16.5645 25.151L20.8433 32.674C20.9586 32.8766 21.1731 32.9997 21.4032 32.9997C21.4221 32.9997 21.4413 32.999 21.4601 32.9974C21.7114 32.9751 21.9267 32.8084 22.0111 32.5709L23.5606 28.2035L27.9704 29.1191C28.2182 29.1705 28.4732 29.0721 28.6223 28.8676C28.7716 28.6632 28.7869 28.3903 28.662 28.17L24.779 21.3266C27.3473 19.0045 28.8104 15.7257 28.8104 12.246C28.8104 6.64338 25.0237 1.76382 19.6021 0.379831C19.2569 0.291711 18.9062 0.499925 18.8181 0.844854C18.73 1.18978 18.9382 1.54075 19.2831 1.62887C24.1337 2.86707 27.5215 7.23302 27.5215 12.246C27.5215 18.3472 22.5664 23.2031 16.5645 23.2031C10.5582 23.2031 5.60745 18.3431 5.60745 12.246C5.60745 7.23302 8.99504 2.86707 13.8456 1.62887C14.1905 1.54075 14.3988 1.18978 14.3109 0.844854C14.2228 0.499925 13.872 0.291711 13.5268 0.379831ZM11.8617 30.812L10.595 27.2427C10.4872 26.9391 10.172 26.7616 9.85651 26.8271L6.29075 27.5675L9.36387 22.1514C11.1557 23.454 13.2774 24.2476 15.4837 24.444L11.8617 30.812ZM23.2721 26.8271C22.9569 26.7616 22.6414 26.9391 22.5337 27.2427L21.2673 30.812L17.6451 24.444C19.8516 24.2476 21.9731 23.454 23.7651 22.1514L26.8382 27.5675L23.2721 26.8271Z" fill="#E22021"/>
</g>
</g>
</svg>
