<svg width="33" height="33" viewBox="0 0 33 33" fill="none" xmlns="http://www.w3.org/2000/svg">
<mask id="mask0_151_646" style="mask-type:luminance" maskUnits="userSpaceOnUse" x="0" y="0" width="33" height="33">
<path d="M33 0H0V33H33V0Z" fill="white"/>
</mask>
<g mask="url(#mask0_151_646)">
<path d="M1.78548 17.8262H7.34699C8.33369 17.8262 9.13754 18.63 9.13754 19.6092V28.4666C9.13754 30.9658 7.09124 33.0049 4.59925 33.0049H1.78548C0.806315 33.0049 0.00219727 32.201 0.00219727 31.2146V19.6092C0.00245508 18.63 0.806315 17.8262 1.78548 17.8262ZM7.34699 18.8564H1.78548C1.37634 18.8564 1.03293 19.1928 1.03293 19.6092V31.2146C1.03293 31.631 1.37634 31.9745 1.78548 31.9745H4.59925C6.52847 31.9745 8.0998 30.3961 8.0998 28.4669V19.6092C8.0998 19.1926 7.76362 18.8564 7.34699 18.8564Z" fill="#E22021"/>
<path d="M10.2702 17.8556L12.8646 16.416C13.1131 16.0288 13.2374 15.583 13.2665 15.0349C13.3104 14.3845 13.2299 13.5877 13.084 12.5867C12.9526 11.7243 13.2593 10.9934 13.7783 10.5332C14.0487 10.2994 14.363 10.1313 14.7136 10.0581C15.0571 9.97761 15.4227 9.98509 15.7952 10.0947C16.5552 10.3213 17.2933 10.979 17.7244 12.2141C18.1044 13.3031 18.2944 14.3481 18.3383 15.3933C18.3749 16.2412 18.3163 17.0814 18.1848 17.9437H23.4615C24.404 17.9437 25.3616 18.3382 26.0339 19.0034C26.7063 19.6683 27.0644 20.5529 26.9404 21.5027L25.9171 29.0957C25.6686 30.9079 24.3533 31.7192 22.6066 31.7192H19.8661H12.6893C11.425 31.7192 10.2777 31.208 9.45167 30.3748C8.61872 29.549 8.09973 28.4014 8.09973 27.1371V20.6106C8.09973 19.8651 8.3774 19.3169 8.81595 18.8711C9.21089 18.4694 9.72215 18.1624 10.2702 17.8556ZM23.7464 23.3658C24.0312 23.3658 24.2579 23.5997 24.2579 23.8848C24.2579 24.17 24.0312 24.3963 23.7464 24.3963H18.2289V25.7482H23.4324C23.7173 25.7482 23.9513 25.9747 23.9513 26.2596C23.9513 26.5447 23.7175 26.7786 23.4324 26.7786H18.2289V28.1233H22.0072C22.292 28.1233 22.5187 28.3571 22.5187 28.6423C22.5187 28.9274 22.292 29.1538 22.0072 29.1538H18.2362C18.2581 29.5631 18.4336 29.9357 18.7113 30.2061C19.0109 30.5057 19.42 30.6885 19.8661 30.6885H22.6066C23.8268 30.6885 24.7186 30.25 24.8939 28.9563L25.9244 21.3634C25.9754 20.9393 25.8733 20.5301 25.6612 20.1793C25.5003 20.9687 24.8501 21.6921 24.0315 21.6921H19.8661C19.4203 21.6921 19.0111 21.8747 18.7113 22.167C18.4115 22.4669 18.2289 22.876 18.2289 23.3218V23.3656L23.7464 23.3658ZM17.7612 30.6885C17.4106 30.2353 17.1984 29.6727 17.1984 29.0589V23.322C17.1984 22.5911 17.498 21.9262 17.9804 21.4439C18.4628 20.9542 19.1352 20.6545 19.8658 20.6545H24.0312C24.4334 20.6545 24.755 20.0334 24.6451 19.6531C24.6013 19.4778 24.4773 19.2877 24.2579 19.105C23.9947 19.0173 23.7317 18.9735 23.4612 18.9735H17.9585C17.3153 21.0123 16.2629 23.519 14.3628 24.5567C14.1145 24.6884 13.8 24.6006 13.6613 24.352C13.5298 24.1037 13.6174 23.7892 13.8732 23.6504C16.2701 22.3424 17.4176 18.067 17.3078 15.4363C17.2711 14.4862 17.0961 13.5362 16.7527 12.5571C16.4457 11.6728 15.9705 11.2195 15.5028 11.0808C15.3053 11.0223 15.1156 11.0151 14.94 11.0589C14.7572 11.0955 14.5964 11.1829 14.4649 11.3C14.1872 11.5485 14.0263 11.9432 14.0995 12.4327C14.2604 13.4996 14.348 14.362 14.297 15.1001C14.2604 15.6336 13.9827 16.9636 13.4712 17.2484L10.7746 18.7541C10.2922 19.0245 9.85362 19.2802 9.55403 19.5871C9.29828 19.8503 9.1374 20.1718 9.1374 20.6103V27.1364C9.1374 28.1155 9.53217 28.9998 10.1751 29.6431C10.8181 30.2932 11.7099 30.6883 12.689 30.6883L17.7612 30.6885Z" fill="#E22021"/>
<path d="M28.2844 3.88232L29.5703 6.60821L32.5519 6.98818C32.8297 7.02483 33.0343 7.28059 32.9977 7.56539C32.9831 7.68973 32.9248 7.79208 32.8369 7.87223L30.6517 9.93314L31.207 12.8929C31.2583 13.1705 31.0755 13.441 30.7978 13.4921C30.6661 13.5214 30.5421 13.4921 30.4325 13.4262L27.8162 11.9939L25.178 13.441C24.9295 13.5724 24.6152 13.4848 24.4766 13.2365C24.418 13.1269 24.4033 13.0099 24.4255 12.8929L24.9808 9.93314L22.7956 7.87223C22.4666 7.56539 22.6639 7.01735 23.1098 6.98789L26.0623 6.60792L27.3483 3.88206C27.4725 3.62631 27.7796 3.51674 28.0354 3.64074C28.1454 3.69231 28.2331 3.77997 28.2844 3.88232ZM28.7593 7.30245L27.8167 5.30724L26.8742 7.30245C26.8009 7.45584 26.6548 7.56568 26.472 7.58737L24.2943 7.87223L25.8948 9.37762C26.0187 9.49465 26.0775 9.66996 26.0482 9.85276L25.639 12.0161L27.5682 10.9564C27.7144 10.876 27.9044 10.8687 28.0653 10.9564L29.9944 12.0161L29.5851 9.85276C29.556 9.68463 29.6073 9.50909 29.7387 9.37762L31.3464 7.87223L29.1832 7.59456C29.0078 7.58012 28.8397 7.47051 28.7593 7.30245Z" fill="#E22021"/>
<path d="M27.3711 14.6908C27.4371 14.4132 27.7147 14.2378 27.9852 14.3036C28.2628 14.3694 28.4382 14.6473 28.3724 14.9175C28.2556 15.429 28.1092 15.9185 27.9339 16.3937C27.7586 16.8761 27.5467 17.3437 27.3053 17.804C27.1739 18.0525 26.8668 18.1548 26.6185 18.0233C26.3628 17.8918 26.2677 17.5776 26.3991 17.3293C26.611 16.9198 26.801 16.4888 26.9692 16.0431C27.1298 15.5973 27.269 15.1516 27.3711 14.6908ZM17.0302 1.08324V5.83345C18.2363 5.77488 19.3835 5.53386 20.4578 5.12444C20.5236 5.10253 20.5893 5.0734 20.6626 5.044C20.2093 3.955 19.6612 3.03436 19.0401 2.34755C18.4263 1.67543 17.7464 1.22967 17.0302 1.08324ZM17.0302 6.86416V7.66082C17.0302 7.94568 16.7967 8.1795 16.5187 8.1795C16.2338 8.1795 15.9998 7.94568 15.9998 7.66082V6.86416C14.6697 6.80564 13.3981 6.53522 12.2143 6.08943C12.1486 6.06032 12.0828 6.03839 12.0168 6.01647C11.4759 7.64608 11.1472 9.57558 11.0959 11.6582H11.5272C11.8121 11.6582 12.0387 11.892 12.0387 12.1772C12.0387 12.4623 11.8124 12.6887 11.5272 12.6887H11.0959C11.1031 13.0323 11.1178 13.361 11.1397 13.6825C11.1763 14.194 11.2274 14.6836 11.2931 15.1588C11.3298 15.4364 11.1322 15.6996 10.8546 15.736C10.5697 15.7726 10.3137 15.5751 10.2771 15.2975C10.2041 14.786 10.1528 14.2742 10.1162 13.7555C10.0943 13.3974 10.0724 13.0465 10.0651 12.6884H5.38845C5.40314 13.0903 5.43949 13.4851 5.50526 13.8722C5.58567 14.4351 5.71717 14.9832 5.88525 15.5166C5.96566 15.7871 5.81227 16.0719 5.54184 16.1598C5.2714 16.2403 4.98652 16.0941 4.8986 15.8237C4.71607 15.239 4.57711 14.6398 4.48198 14.0187C4.38684 13.4196 4.34302 12.7982 4.34302 12.1772C4.34302 8.81528 5.70222 5.76795 7.9093 3.56829C10.1095 1.36837 13.1568 0.00170898 16.5187 0.00170898C18.1996 0.00170898 19.8074 0.345115 21.2689 0.966441C22.7818 1.60943 24.1409 2.55224 25.2665 3.72168C25.4638 3.92613 25.4638 4.24788 25.2593 4.44511C25.0546 4.64259 24.7259 4.63512 24.5285 4.43042C24.4263 4.32806 24.3237 4.22571 24.2142 4.12362C23.5271 4.69364 22.7671 5.18323 21.9558 5.59239C21.9998 5.71663 22.0437 5.84088 22.08 5.9652C22.1604 6.23563 22.0143 6.52797 21.7366 6.60841C21.4662 6.68885 21.1813 6.5427 21.0933 6.26474C21.0714 6.1843 21.0423 6.09661 21.0129 6.00899C20.9472 6.0381 20.8814 6.06008 20.8229 6.08943C19.6318 6.53522 18.3603 6.80535 17.0302 6.86416ZM15.9998 5.83345V1.08324C14.7721 1.33899 13.6392 2.46459 12.7771 4.16718C12.6309 4.44485 12.4994 4.73721 12.3751 5.044C12.4409 5.0734 12.5067 5.10253 12.5724 5.12444C13.6467 5.53386 14.7939 5.77515 15.9998 5.83345ZM22.7743 11.6582C23.0594 11.6582 23.2933 11.892 23.2933 12.1772C23.2933 12.4623 23.0597 12.6887 22.7743 12.6887H19.2959C19.011 12.6887 18.7844 12.4623 18.7844 12.1772C18.7844 11.892 19.011 11.6582 19.2959 11.6582H22.7743ZM5.38845 11.6582H10.0657C10.1167 9.42914 10.4823 7.34625 11.0742 5.58513C10.2631 5.18323 9.51033 4.69364 8.81604 4.12362C8.75752 4.18214 8.69901 4.24067 8.64049 4.29893C6.73321 6.19897 5.52016 8.78611 5.38845 11.6582ZM9.59802 3.43655C10.168 3.88952 10.7819 4.28424 11.4323 4.62042C11.5713 4.29893 11.71 3.99187 11.8562 3.69977C12.3091 2.81548 12.8281 2.06267 13.4054 1.47073C12.0024 1.87987 10.7161 2.55224 9.59802 3.43655ZM21.5976 4.62042C22.2481 4.28424 22.862 3.88978 23.432 3.43655C22.65 2.82269 21.7876 2.30372 20.8668 1.91649C20.4648 1.74092 20.0482 1.59474 19.6246 1.47073C19.6831 1.53647 19.7414 1.59499 19.8001 1.66074C20.4942 2.42799 21.1008 3.42933 21.5976 4.62042ZM21.8975 13.4923C21.9194 13.2146 22.1607 12.9954 22.4456 13.0099C22.7232 13.0246 22.9426 13.2731 22.928 13.558C22.8988 14.0257 22.8549 14.4789 22.8039 14.9172C22.7526 15.363 22.6869 15.8087 22.5993 16.2472C22.5482 16.5249 22.2849 16.7147 22.0073 16.6639C21.7224 16.6126 21.5396 16.3421 21.5907 16.0644C21.6636 15.6625 21.7296 15.2387 21.7807 14.8001C21.8317 14.3694 21.8756 13.9311 21.8975 13.4923Z" fill="#E22021"/>
<path d="M5.30718 28.4516C5.30718 28.1667 5.5338 27.9404 5.8187 27.9404C6.10356 27.9404 6.33763 28.1667 6.33763 28.4516C6.33763 29.5481 5.44614 30.4396 4.34992 30.4396C3.2537 30.4396 2.36218 29.5481 2.36218 28.4516C2.36218 28.1667 2.59602 27.9404 2.88116 27.9404C3.1663 27.9404 3.40014 28.1667 3.40014 28.4516C3.40014 28.9851 3.82398 29.4091 4.35018 29.4091C4.87637 29.4091 5.30718 28.9853 5.30718 28.4516Z" fill="#E22021"/>
</g>
</svg>
